G04 #@! TF.GenerationSoftware,KiCad,Pcbnew,(5.1.5)-3*
G04 #@! TF.CreationDate,2020-05-17T17:05:04+09:00*
G04 #@! TF.ProjectId,7x4x2-top,37783478-322d-4746-9f70-2e6b69636164,rev?*
G04 #@! TF.SameCoordinates,PX2faf080PY2faf080*
G04 #@! TF.FileFunction,Legend,Top*
G04 #@! TF.FilePolarity,Positive*
%FSLAX46Y46*%
G04 Gerber Fmt 4.6, Leading zero omitted, Abs format (unit mm)*
G04 Created by KiCad (PCBNEW (5.1.5)-3) date 2020-05-17 17:05:04*
%MOMM*%
%LPD*%
G04 APERTURE LIST*
%ADD10C,0.150000*%
%ADD11C,2.500000*%
G04 APERTURE END LIST*
D10*
X86686715Y-93307901D02*
X86686715Y-92307901D01*
X87258143Y-93307901D02*
X86829572Y-92736473D01*
X87258143Y-92307901D02*
X86686715Y-92879330D01*
X87639096Y-92403140D02*
X87686715Y-92355521D01*
X87781953Y-92307901D01*
X88020048Y-92307901D01*
X88115286Y-92355521D01*
X88162905Y-92403140D01*
X88210524Y-92498378D01*
X88210524Y-92593616D01*
X88162905Y-92736473D01*
X87591477Y-93307901D01*
X88210524Y-93307901D01*
X89067667Y-92307901D02*
X88877191Y-92307901D01*
X88781953Y-92355521D01*
X88734334Y-92403140D01*
X88639096Y-92545997D01*
X88591477Y-92736473D01*
X88591477Y-93117425D01*
X88639096Y-93212663D01*
X88686715Y-93260282D01*
X88781953Y-93307901D01*
X88972429Y-93307901D01*
X89067667Y-93260282D01*
X89115286Y-93212663D01*
X89162905Y-93117425D01*
X89162905Y-92879330D01*
X89115286Y-92784092D01*
X89067667Y-92736473D01*
X88972429Y-92688854D01*
X88781953Y-92688854D01*
X88686715Y-92736473D01*
X88639096Y-92784092D01*
X88591477Y-92879330D01*
X67686715Y-93307901D02*
X67686715Y-92307901D01*
X68258143Y-93307901D02*
X67829572Y-92736473D01*
X68258143Y-92307901D02*
X67686715Y-92879330D01*
X68639096Y-92403140D02*
X68686715Y-92355521D01*
X68781953Y-92307901D01*
X69020048Y-92307901D01*
X69115286Y-92355521D01*
X69162905Y-92403140D01*
X69210524Y-92498378D01*
X69210524Y-92593616D01*
X69162905Y-92736473D01*
X68591477Y-93307901D01*
X69210524Y-93307901D01*
X70115286Y-92307901D02*
X69639096Y-92307901D01*
X69591477Y-92784092D01*
X69639096Y-92736473D01*
X69734334Y-92688854D01*
X69972429Y-92688854D01*
X70067667Y-92736473D01*
X70115286Y-92784092D01*
X70162905Y-92879330D01*
X70162905Y-93117425D01*
X70115286Y-93212663D01*
X70067667Y-93260282D01*
X69972429Y-93307901D01*
X69734334Y-93307901D01*
X69639096Y-93260282D01*
X69591477Y-93212663D01*
X48686715Y-93307901D02*
X48686715Y-92307901D01*
X49258143Y-93307901D02*
X48829572Y-92736473D01*
X49258143Y-92307901D02*
X48686715Y-92879330D01*
X49639096Y-92403140D02*
X49686715Y-92355521D01*
X49781953Y-92307901D01*
X50020048Y-92307901D01*
X50115286Y-92355521D01*
X50162905Y-92403140D01*
X50210524Y-92498378D01*
X50210524Y-92593616D01*
X50162905Y-92736473D01*
X49591477Y-93307901D01*
X50210524Y-93307901D01*
X51067667Y-92641235D02*
X51067667Y-93307901D01*
X50829572Y-92260282D02*
X50591477Y-92974568D01*
X51210524Y-92974568D01*
X29686715Y-93307901D02*
X29686715Y-92307901D01*
X30258143Y-93307901D02*
X29829572Y-92736473D01*
X30258143Y-92307901D02*
X29686715Y-92879330D01*
X30639096Y-92403140D02*
X30686715Y-92355521D01*
X30781953Y-92307901D01*
X31020048Y-92307901D01*
X31115286Y-92355521D01*
X31162905Y-92403140D01*
X31210524Y-92498378D01*
X31210524Y-92593616D01*
X31162905Y-92736473D01*
X30591477Y-93307901D01*
X31210524Y-93307901D01*
X31543858Y-92307901D02*
X32162905Y-92307901D01*
X31829572Y-92688854D01*
X31972429Y-92688854D01*
X32067667Y-92736473D01*
X32115286Y-92784092D01*
X32162905Y-92879330D01*
X32162905Y-93117425D01*
X32115286Y-93212663D01*
X32067667Y-93260282D01*
X31972429Y-93307901D01*
X31686715Y-93307901D01*
X31591477Y-93260282D01*
X31543858Y-93212663D01*
X10686715Y-93307901D02*
X10686715Y-92307901D01*
X11258143Y-93307901D02*
X10829572Y-92736473D01*
X11258143Y-92307901D02*
X10686715Y-92879330D01*
X11639096Y-92403140D02*
X11686715Y-92355521D01*
X11781953Y-92307901D01*
X12020048Y-92307901D01*
X12115286Y-92355521D01*
X12162905Y-92403140D01*
X12210524Y-92498378D01*
X12210524Y-92593616D01*
X12162905Y-92736473D01*
X11591477Y-93307901D01*
X12210524Y-93307901D01*
X12591477Y-92403140D02*
X12639096Y-92355521D01*
X12734334Y-92307901D01*
X12972429Y-92307901D01*
X13067667Y-92355521D01*
X13115286Y-92403140D01*
X13162905Y-92498378D01*
X13162905Y-92593616D01*
X13115286Y-92736473D01*
X12543858Y-93307901D01*
X13162905Y-93307901D01*
X124686715Y-74307901D02*
X124686715Y-73307901D01*
X125258143Y-74307901D02*
X124829572Y-73736473D01*
X125258143Y-73307901D02*
X124686715Y-73879330D01*
X125639096Y-73403140D02*
X125686715Y-73355521D01*
X125781953Y-73307901D01*
X126020048Y-73307901D01*
X126115286Y-73355521D01*
X126162905Y-73403140D01*
X126210524Y-73498378D01*
X126210524Y-73593616D01*
X126162905Y-73736473D01*
X125591477Y-74307901D01*
X126210524Y-74307901D01*
X127162905Y-74307901D02*
X126591477Y-74307901D01*
X126877191Y-74307901D02*
X126877191Y-73307901D01*
X126781953Y-73450759D01*
X126686715Y-73545997D01*
X126591477Y-73593616D01*
X105686715Y-74307901D02*
X105686715Y-73307901D01*
X106258143Y-74307901D02*
X105829572Y-73736473D01*
X106258143Y-73307901D02*
X105686715Y-73879330D01*
X106639096Y-73403140D02*
X106686715Y-73355521D01*
X106781953Y-73307901D01*
X107020048Y-73307901D01*
X107115286Y-73355521D01*
X107162905Y-73403140D01*
X107210524Y-73498378D01*
X107210524Y-73593616D01*
X107162905Y-73736473D01*
X106591477Y-74307901D01*
X107210524Y-74307901D01*
X107829572Y-73307901D02*
X107924810Y-73307901D01*
X108020048Y-73355521D01*
X108067667Y-73403140D01*
X108115286Y-73498378D01*
X108162905Y-73688854D01*
X108162905Y-73926949D01*
X108115286Y-74117425D01*
X108067667Y-74212663D01*
X108020048Y-74260282D01*
X107924810Y-74307901D01*
X107829572Y-74307901D01*
X107734334Y-74260282D01*
X107686715Y-74212663D01*
X107639096Y-74117425D01*
X107591477Y-73926949D01*
X107591477Y-73688854D01*
X107639096Y-73498378D01*
X107686715Y-73403140D01*
X107734334Y-73355521D01*
X107829572Y-73307901D01*
X86686715Y-74307901D02*
X86686715Y-73307901D01*
X87258143Y-74307901D02*
X86829572Y-73736473D01*
X87258143Y-73307901D02*
X86686715Y-73879330D01*
X88210524Y-74307901D02*
X87639096Y-74307901D01*
X87924810Y-74307901D02*
X87924810Y-73307901D01*
X87829572Y-73450759D01*
X87734334Y-73545997D01*
X87639096Y-73593616D01*
X88686715Y-74307901D02*
X88877191Y-74307901D01*
X88972429Y-74260282D01*
X89020048Y-74212663D01*
X89115286Y-74069806D01*
X89162905Y-73879330D01*
X89162905Y-73498378D01*
X89115286Y-73403140D01*
X89067667Y-73355521D01*
X88972429Y-73307901D01*
X88781953Y-73307901D01*
X88686715Y-73355521D01*
X88639096Y-73403140D01*
X88591477Y-73498378D01*
X88591477Y-73736473D01*
X88639096Y-73831711D01*
X88686715Y-73879330D01*
X88781953Y-73926949D01*
X88972429Y-73926949D01*
X89067667Y-73879330D01*
X89115286Y-73831711D01*
X89162905Y-73736473D01*
X67686715Y-74307901D02*
X67686715Y-73307901D01*
X68258143Y-74307901D02*
X67829572Y-73736473D01*
X68258143Y-73307901D02*
X67686715Y-73879330D01*
X69210524Y-74307901D02*
X68639096Y-74307901D01*
X68924810Y-74307901D02*
X68924810Y-73307901D01*
X68829572Y-73450759D01*
X68734334Y-73545997D01*
X68639096Y-73593616D01*
X69781953Y-73736473D02*
X69686715Y-73688854D01*
X69639096Y-73641235D01*
X69591477Y-73545997D01*
X69591477Y-73498378D01*
X69639096Y-73403140D01*
X69686715Y-73355521D01*
X69781953Y-73307901D01*
X69972429Y-73307901D01*
X70067667Y-73355521D01*
X70115286Y-73403140D01*
X70162905Y-73498378D01*
X70162905Y-73545997D01*
X70115286Y-73641235D01*
X70067667Y-73688854D01*
X69972429Y-73736473D01*
X69781953Y-73736473D01*
X69686715Y-73784092D01*
X69639096Y-73831711D01*
X69591477Y-73926949D01*
X69591477Y-74117425D01*
X69639096Y-74212663D01*
X69686715Y-74260282D01*
X69781953Y-74307901D01*
X69972429Y-74307901D01*
X70067667Y-74260282D01*
X70115286Y-74212663D01*
X70162905Y-74117425D01*
X70162905Y-73926949D01*
X70115286Y-73831711D01*
X70067667Y-73784092D01*
X69972429Y-73736473D01*
X48686715Y-74307901D02*
X48686715Y-73307901D01*
X49258143Y-74307901D02*
X48829572Y-73736473D01*
X49258143Y-73307901D02*
X48686715Y-73879330D01*
X50210524Y-74307901D02*
X49639096Y-74307901D01*
X49924810Y-74307901D02*
X49924810Y-73307901D01*
X49829572Y-73450759D01*
X49734334Y-73545997D01*
X49639096Y-73593616D01*
X50543858Y-73307901D02*
X51210524Y-73307901D01*
X50781953Y-74307901D01*
X29686715Y-74307901D02*
X29686715Y-73307901D01*
X30258143Y-74307901D02*
X29829572Y-73736473D01*
X30258143Y-73307901D02*
X29686715Y-73879330D01*
X31210524Y-74307901D02*
X30639096Y-74307901D01*
X30924810Y-74307901D02*
X30924810Y-73307901D01*
X30829572Y-73450759D01*
X30734334Y-73545997D01*
X30639096Y-73593616D01*
X32067667Y-73307901D02*
X31877191Y-73307901D01*
X31781953Y-73355521D01*
X31734334Y-73403140D01*
X31639096Y-73545997D01*
X31591477Y-73736473D01*
X31591477Y-74117425D01*
X31639096Y-74212663D01*
X31686715Y-74260282D01*
X31781953Y-74307901D01*
X31972429Y-74307901D01*
X32067667Y-74260282D01*
X32115286Y-74212663D01*
X32162905Y-74117425D01*
X32162905Y-73879330D01*
X32115286Y-73784092D01*
X32067667Y-73736473D01*
X31972429Y-73688854D01*
X31781953Y-73688854D01*
X31686715Y-73736473D01*
X31639096Y-73784092D01*
X31591477Y-73879330D01*
X10686715Y-74307901D02*
X10686715Y-73307901D01*
X11258143Y-74307901D02*
X10829572Y-73736473D01*
X11258143Y-73307901D02*
X10686715Y-73879330D01*
X12210524Y-74307901D02*
X11639096Y-74307901D01*
X11924810Y-74307901D02*
X11924810Y-73307901D01*
X11829572Y-73450759D01*
X11734334Y-73545997D01*
X11639096Y-73593616D01*
X13115286Y-73307901D02*
X12639096Y-73307901D01*
X12591477Y-73784092D01*
X12639096Y-73736473D01*
X12734334Y-73688854D01*
X12972429Y-73688854D01*
X13067667Y-73736473D01*
X13115286Y-73784092D01*
X13162905Y-73879330D01*
X13162905Y-74117425D01*
X13115286Y-74212663D01*
X13067667Y-74260282D01*
X12972429Y-74307901D01*
X12734334Y-74307901D01*
X12639096Y-74260282D01*
X12591477Y-74212663D01*
X124686715Y-55307901D02*
X124686715Y-54307901D01*
X125258143Y-55307901D02*
X124829572Y-54736473D01*
X125258143Y-54307901D02*
X124686715Y-54879330D01*
X126210524Y-55307901D02*
X125639096Y-55307901D01*
X125924810Y-55307901D02*
X125924810Y-54307901D01*
X125829572Y-54450759D01*
X125734334Y-54545997D01*
X125639096Y-54593616D01*
X127067667Y-54641235D02*
X127067667Y-55307901D01*
X126829572Y-54260282D02*
X126591477Y-54974568D01*
X127210524Y-54974568D01*
X105686715Y-55307901D02*
X105686715Y-54307901D01*
X106258143Y-55307901D02*
X105829572Y-54736473D01*
X106258143Y-54307901D02*
X105686715Y-54879330D01*
X107210524Y-55307901D02*
X106639096Y-55307901D01*
X106924810Y-55307901D02*
X106924810Y-54307901D01*
X106829572Y-54450759D01*
X106734334Y-54545997D01*
X106639096Y-54593616D01*
X107543858Y-54307901D02*
X108162905Y-54307901D01*
X107829572Y-54688854D01*
X107972429Y-54688854D01*
X108067667Y-54736473D01*
X108115286Y-54784092D01*
X108162905Y-54879330D01*
X108162905Y-55117425D01*
X108115286Y-55212663D01*
X108067667Y-55260282D01*
X107972429Y-55307901D01*
X107686715Y-55307901D01*
X107591477Y-55260282D01*
X107543858Y-55212663D01*
X86686715Y-55307901D02*
X86686715Y-54307901D01*
X87258143Y-55307901D02*
X86829572Y-54736473D01*
X87258143Y-54307901D02*
X86686715Y-54879330D01*
X88210524Y-55307901D02*
X87639096Y-55307901D01*
X87924810Y-55307901D02*
X87924810Y-54307901D01*
X87829572Y-54450759D01*
X87734334Y-54545997D01*
X87639096Y-54593616D01*
X88591477Y-54403140D02*
X88639096Y-54355521D01*
X88734334Y-54307901D01*
X88972429Y-54307901D01*
X89067667Y-54355521D01*
X89115286Y-54403140D01*
X89162905Y-54498378D01*
X89162905Y-54593616D01*
X89115286Y-54736473D01*
X88543858Y-55307901D01*
X89162905Y-55307901D01*
X67686715Y-55307901D02*
X67686715Y-54307901D01*
X68258143Y-55307901D02*
X67829572Y-54736473D01*
X68258143Y-54307901D02*
X67686715Y-54879330D01*
X69210524Y-55307901D02*
X68639096Y-55307901D01*
X68924810Y-55307901D02*
X68924810Y-54307901D01*
X68829572Y-54450759D01*
X68734334Y-54545997D01*
X68639096Y-54593616D01*
X70162905Y-55307901D02*
X69591477Y-55307901D01*
X69877191Y-55307901D02*
X69877191Y-54307901D01*
X69781953Y-54450759D01*
X69686715Y-54545997D01*
X69591477Y-54593616D01*
X48686715Y-55307901D02*
X48686715Y-54307901D01*
X49258143Y-55307901D02*
X48829572Y-54736473D01*
X49258143Y-54307901D02*
X48686715Y-54879330D01*
X50210524Y-55307901D02*
X49639096Y-55307901D01*
X49924810Y-55307901D02*
X49924810Y-54307901D01*
X49829572Y-54450759D01*
X49734334Y-54545997D01*
X49639096Y-54593616D01*
X50829572Y-54307901D02*
X50924810Y-54307901D01*
X51020048Y-54355521D01*
X51067667Y-54403140D01*
X51115286Y-54498378D01*
X51162905Y-54688854D01*
X51162905Y-54926949D01*
X51115286Y-55117425D01*
X51067667Y-55212663D01*
X51020048Y-55260282D01*
X50924810Y-55307901D01*
X50829572Y-55307901D01*
X50734334Y-55260282D01*
X50686715Y-55212663D01*
X50639096Y-55117425D01*
X50591477Y-54926949D01*
X50591477Y-54688854D01*
X50639096Y-54498378D01*
X50686715Y-54403140D01*
X50734334Y-54355521D01*
X50829572Y-54307901D01*
X30162905Y-55307901D02*
X30162905Y-54307901D01*
X30734334Y-55307901D02*
X30305762Y-54736473D01*
X30734334Y-54307901D02*
X30162905Y-54879330D01*
X31210524Y-55307901D02*
X31401001Y-55307901D01*
X31496239Y-55260282D01*
X31543858Y-55212663D01*
X31639096Y-55069806D01*
X31686715Y-54879330D01*
X31686715Y-54498378D01*
X31639096Y-54403140D01*
X31591477Y-54355521D01*
X31496239Y-54307901D01*
X31305762Y-54307901D01*
X31210524Y-54355521D01*
X31162905Y-54403140D01*
X31115286Y-54498378D01*
X31115286Y-54736473D01*
X31162905Y-54831711D01*
X31210524Y-54879330D01*
X31305762Y-54926949D01*
X31496239Y-54926949D01*
X31591477Y-54879330D01*
X31639096Y-54831711D01*
X31686715Y-54736473D01*
X11162905Y-55307901D02*
X11162905Y-54307901D01*
X11734334Y-55307901D02*
X11305762Y-54736473D01*
X11734334Y-54307901D02*
X11162905Y-54879330D01*
X12305762Y-54736473D02*
X12210524Y-54688854D01*
X12162905Y-54641235D01*
X12115286Y-54545997D01*
X12115286Y-54498378D01*
X12162905Y-54403140D01*
X12210524Y-54355521D01*
X12305762Y-54307901D01*
X12496239Y-54307901D01*
X12591477Y-54355521D01*
X12639096Y-54403140D01*
X12686715Y-54498378D01*
X12686715Y-54545997D01*
X12639096Y-54641235D01*
X12591477Y-54688854D01*
X12496239Y-54736473D01*
X12305762Y-54736473D01*
X12210524Y-54784092D01*
X12162905Y-54831711D01*
X12115286Y-54926949D01*
X12115286Y-55117425D01*
X12162905Y-55212663D01*
X12210524Y-55260282D01*
X12305762Y-55307901D01*
X12496239Y-55307901D01*
X12591477Y-55260282D01*
X12639096Y-55212663D01*
X12686715Y-55117425D01*
X12686715Y-54926949D01*
X12639096Y-54831711D01*
X12591477Y-54784092D01*
X12496239Y-54736473D01*
X125162905Y-36307901D02*
X125162905Y-35307901D01*
X125734334Y-36307901D02*
X125305762Y-35736473D01*
X125734334Y-35307901D02*
X125162905Y-35879330D01*
X126067667Y-35307901D02*
X126734334Y-35307901D01*
X126305762Y-36307901D01*
X106162905Y-36307901D02*
X106162905Y-35307901D01*
X106734334Y-36307901D02*
X106305762Y-35736473D01*
X106734334Y-35307901D02*
X106162905Y-35879330D01*
X107591477Y-35307901D02*
X107401001Y-35307901D01*
X107305762Y-35355521D01*
X107258143Y-35403140D01*
X107162905Y-35545997D01*
X107115286Y-35736473D01*
X107115286Y-36117425D01*
X107162905Y-36212663D01*
X107210524Y-36260282D01*
X107305762Y-36307901D01*
X107496239Y-36307901D01*
X107591477Y-36260282D01*
X107639096Y-36212663D01*
X107686715Y-36117425D01*
X107686715Y-35879330D01*
X107639096Y-35784092D01*
X107591477Y-35736473D01*
X107496239Y-35688854D01*
X107305762Y-35688854D01*
X107210524Y-35736473D01*
X107162905Y-35784092D01*
X107115286Y-35879330D01*
X87162905Y-36307901D02*
X87162905Y-35307901D01*
X87734334Y-36307901D02*
X87305762Y-35736473D01*
X87734334Y-35307901D02*
X87162905Y-35879330D01*
X88639096Y-35307901D02*
X88162905Y-35307901D01*
X88115286Y-35784092D01*
X88162905Y-35736473D01*
X88258143Y-35688854D01*
X88496239Y-35688854D01*
X88591477Y-35736473D01*
X88639096Y-35784092D01*
X88686715Y-35879330D01*
X88686715Y-36117425D01*
X88639096Y-36212663D01*
X88591477Y-36260282D01*
X88496239Y-36307901D01*
X88258143Y-36307901D01*
X88162905Y-36260282D01*
X88115286Y-36212663D01*
X68162905Y-36307901D02*
X68162905Y-35307901D01*
X68734334Y-36307901D02*
X68305762Y-35736473D01*
X68734334Y-35307901D02*
X68162905Y-35879330D01*
X69591477Y-35641235D02*
X69591477Y-36307901D01*
X69353381Y-35260282D02*
X69115286Y-35974568D01*
X69734334Y-35974568D01*
X49162905Y-36307901D02*
X49162905Y-35307901D01*
X49734334Y-36307901D02*
X49305762Y-35736473D01*
X49734334Y-35307901D02*
X49162905Y-35879330D01*
X50067667Y-35307901D02*
X50686715Y-35307901D01*
X50353381Y-35688854D01*
X50496239Y-35688854D01*
X50591477Y-35736473D01*
X50639096Y-35784092D01*
X50686715Y-35879330D01*
X50686715Y-36117425D01*
X50639096Y-36212663D01*
X50591477Y-36260282D01*
X50496239Y-36307901D01*
X50210524Y-36307901D01*
X50115286Y-36260282D01*
X50067667Y-36212663D01*
X30162905Y-36307901D02*
X30162905Y-35307901D01*
X30734334Y-36307901D02*
X30305762Y-35736473D01*
X30734334Y-35307901D02*
X30162905Y-35879330D01*
X31115286Y-35403140D02*
X31162905Y-35355521D01*
X31258143Y-35307901D01*
X31496239Y-35307901D01*
X31591477Y-35355521D01*
X31639096Y-35403140D01*
X31686715Y-35498378D01*
X31686715Y-35593616D01*
X31639096Y-35736473D01*
X31067667Y-36307901D01*
X31686715Y-36307901D01*
X11162905Y-36307901D02*
X11162905Y-35307901D01*
X11734334Y-36307901D02*
X11305762Y-35736473D01*
X11734334Y-35307901D02*
X11162905Y-35879330D01*
X12686715Y-36307901D02*
X12115286Y-36307901D01*
X12401001Y-36307901D02*
X12401001Y-35307901D01*
X12305762Y-35450759D01*
X12210524Y-35545997D01*
X12115286Y-35593616D01*
X56939096Y-108807901D02*
X56939096Y-107807901D01*
X56939096Y-108284092D02*
X57510524Y-108284092D01*
X57510524Y-108807901D02*
X57510524Y-107807901D01*
X58462905Y-107807901D02*
X57986715Y-107807901D01*
X57939096Y-108284092D01*
X57986715Y-108236473D01*
X58081953Y-108188854D01*
X58320048Y-108188854D01*
X58415286Y-108236473D01*
X58462905Y-108284092D01*
X58510524Y-108379330D01*
X58510524Y-108617425D01*
X58462905Y-108712663D01*
X58415286Y-108760282D01*
X58320048Y-108807901D01*
X58081953Y-108807901D01*
X57986715Y-108760282D01*
X57939096Y-108712663D01*
X114239096Y-109707901D02*
X114239096Y-108707901D01*
X114239096Y-109184092D02*
X114810524Y-109184092D01*
X114810524Y-109707901D02*
X114810524Y-108707901D01*
X115715286Y-109041235D02*
X115715286Y-109707901D01*
X115477191Y-108660282D02*
X115239096Y-109374568D01*
X115858143Y-109374568D01*
X17339096Y-107607901D02*
X17339096Y-106607901D01*
X17339096Y-107084092D02*
X17910524Y-107084092D01*
X17910524Y-107607901D02*
X17910524Y-106607901D01*
X18291477Y-106607901D02*
X18910524Y-106607901D01*
X18577191Y-106988854D01*
X18720048Y-106988854D01*
X18815286Y-107036473D01*
X18862905Y-107084092D01*
X18910524Y-107179330D01*
X18910524Y-107417425D01*
X18862905Y-107512663D01*
X18815286Y-107560282D01*
X18720048Y-107607901D01*
X18434334Y-107607901D01*
X18339096Y-107560282D01*
X18291477Y-107512663D01*
X116439096Y-16007901D02*
X116439096Y-15007901D01*
X116439096Y-15484092D02*
X117010524Y-15484092D01*
X117010524Y-16007901D02*
X117010524Y-15007901D01*
X117439096Y-15103140D02*
X117486715Y-15055521D01*
X117581953Y-15007901D01*
X117820048Y-15007901D01*
X117915286Y-15055521D01*
X117962905Y-15103140D01*
X118010524Y-15198378D01*
X118010524Y-15293616D01*
X117962905Y-15436473D01*
X117391477Y-16007901D01*
X118010524Y-16007901D01*
X20539096Y-18407901D02*
X20539096Y-17407901D01*
X20539096Y-17884092D02*
X21110524Y-17884092D01*
X21110524Y-18407901D02*
X21110524Y-17407901D01*
X22110524Y-18407901D02*
X21539096Y-18407901D01*
X21824810Y-18407901D02*
X21824810Y-17407901D01*
X21729572Y-17550759D01*
X21634334Y-17645997D01*
X21539096Y-17693616D01*
%LPC*%
D11*
X59401001Y-63855521D03*
X116401001Y-81855521D03*
X21401001Y-82855521D03*
X116401001Y-44855521D03*
X21401001Y-44855521D03*
M02*
