G04 #@! TF.GenerationSoftware,KiCad,Pcbnew,(5.1.5)-3*
G04 #@! TF.CreationDate,2020-05-19T11:01:32+09:00*
G04 #@! TF.ProjectId,7x4x2-bot,37783478-322d-4626-9f74-2e6b69636164,rev?*
G04 #@! TF.SameCoordinates,PX2faf080PY2faf080*
G04 #@! TF.FileFunction,Legend,Top*
G04 #@! TF.FilePolarity,Positive*
%FSLAX46Y46*%
G04 Gerber Fmt 4.6, Leading zero omitted, Abs format (unit mm)*
G04 Created by KiCad (PCBNEW (5.1.5)-3) date 2020-05-19 11:01:32*
%MOMM*%
%LPD*%
G04 APERTURE LIST*
%ADD10C,0.400000*%
%ADD11C,0.150000*%
%ADD12C,2.500000*%
G04 APERTURE END LIST*
D10*
X58710524Y-81212663D02*
X62043858Y-81212663D01*
X59901001Y-84212663D01*
X63472429Y-81212663D02*
X66805762Y-84212663D01*
X66805762Y-81212663D02*
X63472429Y-84212663D01*
X70853381Y-82212663D02*
X70853381Y-84212663D01*
X69662905Y-81069806D02*
X68472429Y-83212663D01*
X71567667Y-83212663D01*
X72996239Y-81212663D02*
X76329572Y-84212663D01*
X76329572Y-81212663D02*
X72996239Y-84212663D01*
X77996239Y-81498378D02*
X78234334Y-81355521D01*
X78710524Y-81212663D01*
X79901001Y-81212663D01*
X80377191Y-81355521D01*
X80615286Y-81498378D01*
X80853381Y-81784092D01*
X80853381Y-82069806D01*
X80615286Y-82498378D01*
X77758143Y-84212663D01*
X80853381Y-84212663D01*
D11*
X58139096Y-12307901D02*
X58139096Y-11307901D01*
X58139096Y-11784092D02*
X58710524Y-11784092D01*
X58710524Y-12307901D02*
X58710524Y-11307901D01*
X59662905Y-11307901D02*
X59186715Y-11307901D01*
X59139096Y-11784092D01*
X59186715Y-11736473D01*
X59281953Y-11688854D01*
X59520048Y-11688854D01*
X59615286Y-11736473D01*
X59662905Y-11784092D01*
X59710524Y-11879330D01*
X59710524Y-12117425D01*
X59662905Y-12212663D01*
X59615286Y-12260282D01*
X59520048Y-12307901D01*
X59281953Y-12307901D01*
X59186715Y-12260282D01*
X59139096Y-12212663D01*
X115639096Y-120807901D02*
X115639096Y-119807901D01*
X115639096Y-120284092D02*
X116210524Y-120284092D01*
X116210524Y-120807901D02*
X116210524Y-119807901D01*
X117115286Y-120141235D02*
X117115286Y-120807901D01*
X116877191Y-119760282D02*
X116639096Y-120474568D01*
X117258143Y-120474568D01*
X21139096Y-126807901D02*
X21139096Y-125807901D01*
X21139096Y-126284092D02*
X21710524Y-126284092D01*
X21710524Y-126807901D02*
X21710524Y-125807901D01*
X22091477Y-125807901D02*
X22710524Y-125807901D01*
X22377191Y-126188854D01*
X22520048Y-126188854D01*
X22615286Y-126236473D01*
X22662905Y-126284092D01*
X22710524Y-126379330D01*
X22710524Y-126617425D01*
X22662905Y-126712663D01*
X22615286Y-126760282D01*
X22520048Y-126807901D01*
X22234334Y-126807901D01*
X22139096Y-126760282D01*
X22091477Y-126712663D01*
X115639096Y-8807901D02*
X115639096Y-7807901D01*
X115639096Y-8284092D02*
X116210524Y-8284092D01*
X116210524Y-8807901D02*
X116210524Y-7807901D01*
X116639096Y-7903140D02*
X116686715Y-7855521D01*
X116781953Y-7807901D01*
X117020048Y-7807901D01*
X117115286Y-7855521D01*
X117162905Y-7903140D01*
X117210524Y-7998378D01*
X117210524Y-8093616D01*
X117162905Y-8236473D01*
X116591477Y-8807901D01*
X117210524Y-8807901D01*
X19639096Y-10307901D02*
X19639096Y-9307901D01*
X19639096Y-9784092D02*
X20210524Y-9784092D01*
X20210524Y-10307901D02*
X20210524Y-9307901D01*
X21210524Y-10307901D02*
X20639096Y-10307901D01*
X20924810Y-10307901D02*
X20924810Y-9307901D01*
X20829572Y-9450759D01*
X20734334Y-9545997D01*
X20639096Y-9593616D01*
%LPC*%
D12*
X59401001Y-63855521D03*
X116401001Y-81855521D03*
X21401001Y-82855521D03*
X116401001Y-44855521D03*
X21401001Y-44855521D03*
M02*
