G04 #@! TF.GenerationSoftware,KiCad,Pcbnew,(5.1.6)-1*
G04 #@! TF.CreationDate,2020-05-31T11:49:10+09:00*
G04 #@! TF.ProjectId,7x4x2-pcb,37783478-322d-4706-9362-2e6b69636164,rev?*
G04 #@! TF.SameCoordinates,PX2faf080PY2faf080*
G04 #@! TF.FileFunction,Legend,Bot*
G04 #@! TF.FilePolarity,Positive*
%FSLAX46Y46*%
G04 Gerber Fmt 4.6, Leading zero omitted, Abs format (unit mm)*
G04 Created by KiCad (PCBNEW (5.1.6)-1) date 2020-05-31 11:49:10*
%MOMM*%
%LPD*%
G01*
G04 APERTURE LIST*
%ADD10C,0.150000*%
%ADD11C,0.400000*%
%ADD12C,0.120000*%
%ADD13C,4.700000*%
%ADD14R,2.700000X2.800000*%
%ADD15C,2.300000*%
%ADD16C,4.500000*%
%ADD17C,3.400000*%
%ADD18R,8.000000X8.000000*%
%ADD19C,3.200000*%
%ADD20R,2.200000X1.500000*%
%ADD21C,2.400000*%
%ADD22R,2.100000X2.100000*%
%ADD23O,2.100000X2.100000*%
%ADD24C,2.100000*%
%ADD25C,1.300000*%
G04 APERTURE END LIST*
D10*
X152262905Y-26417425D02*
X152110524Y-26417425D01*
X152034334Y-26455521D01*
X151958143Y-26531711D01*
X151920048Y-26684092D01*
X151920048Y-26950759D01*
X151958143Y-27103140D01*
X152034334Y-27179330D01*
X152110524Y-27217425D01*
X152262905Y-27217425D01*
X152339096Y-27179330D01*
X152415286Y-27103140D01*
X152453381Y-26950759D01*
X152453381Y-26684092D01*
X152415286Y-26531711D01*
X152339096Y-26455521D01*
X152262905Y-26417425D01*
X151310524Y-26798378D02*
X151577191Y-26798378D01*
X151577191Y-27217425D02*
X151577191Y-26417425D01*
X151196239Y-26417425D01*
X150624810Y-26798378D02*
X150891477Y-26798378D01*
X150891477Y-27217425D02*
X150891477Y-26417425D01*
X150510524Y-26417425D01*
X140196239Y-26417425D02*
X140043858Y-26417425D01*
X139967667Y-26455521D01*
X139891477Y-26531711D01*
X139853381Y-26684092D01*
X139853381Y-26950759D01*
X139891477Y-27103140D01*
X139967667Y-27179330D01*
X140043858Y-27217425D01*
X140196239Y-27217425D01*
X140272429Y-27179330D01*
X140348620Y-27103140D01*
X140386715Y-26950759D01*
X140386715Y-26684092D01*
X140348620Y-26531711D01*
X140272429Y-26455521D01*
X140196239Y-26417425D01*
X139510524Y-27217425D02*
X139510524Y-26417425D01*
X139053381Y-27217425D01*
X139053381Y-26417425D01*
X54734334Y-81403140D02*
X54686715Y-81355521D01*
X54591477Y-81307901D01*
X54353381Y-81307901D01*
X54258143Y-81355521D01*
X54210524Y-81403140D01*
X54162905Y-81498378D01*
X54162905Y-81593616D01*
X54210524Y-81736473D01*
X54781953Y-82307901D01*
X54162905Y-82307901D01*
X53543858Y-81307901D02*
X53448620Y-81307901D01*
X53353381Y-81355521D01*
X53305762Y-81403140D01*
X53258143Y-81498378D01*
X53210524Y-81688854D01*
X53210524Y-81926949D01*
X53258143Y-82117425D01*
X53305762Y-82212663D01*
X53353381Y-82260282D01*
X53448620Y-82307901D01*
X53543858Y-82307901D01*
X53639096Y-82260282D01*
X53686715Y-82212663D01*
X53734334Y-82117425D01*
X53781953Y-81926949D01*
X53781953Y-81688854D01*
X53734334Y-81498378D01*
X53686715Y-81403140D01*
X53639096Y-81355521D01*
X53543858Y-81307901D01*
X52829572Y-81403140D02*
X52781953Y-81355521D01*
X52686715Y-81307901D01*
X52448620Y-81307901D01*
X52353381Y-81355521D01*
X52305762Y-81403140D01*
X52258143Y-81498378D01*
X52258143Y-81593616D01*
X52305762Y-81736473D01*
X52877191Y-82307901D01*
X52258143Y-82307901D01*
X51639096Y-81307901D02*
X51543858Y-81307901D01*
X51448620Y-81355521D01*
X51401001Y-81403140D01*
X51353381Y-81498378D01*
X51305762Y-81688854D01*
X51305762Y-81926949D01*
X51353381Y-82117425D01*
X51401001Y-82212663D01*
X51448620Y-82260282D01*
X51543858Y-82307901D01*
X51639096Y-82307901D01*
X51734334Y-82260282D01*
X51781953Y-82212663D01*
X51829572Y-82117425D01*
X51877191Y-81926949D01*
X51877191Y-81688854D01*
X51829572Y-81498378D01*
X51781953Y-81403140D01*
X51734334Y-81355521D01*
X51639096Y-81307901D01*
X50877191Y-82212663D02*
X50829572Y-82260282D01*
X50877191Y-82307901D01*
X50924810Y-82260282D01*
X50877191Y-82212663D01*
X50877191Y-82307901D01*
X50210524Y-81307901D02*
X50115286Y-81307901D01*
X50020048Y-81355521D01*
X49972429Y-81403140D01*
X49924810Y-81498378D01*
X49877191Y-81688854D01*
X49877191Y-81926949D01*
X49924810Y-82117425D01*
X49972429Y-82212663D01*
X50020048Y-82260282D01*
X50115286Y-82307901D01*
X50210524Y-82307901D01*
X50305762Y-82260282D01*
X50353381Y-82212663D01*
X50401001Y-82117425D01*
X50448620Y-81926949D01*
X50448620Y-81688854D01*
X50401001Y-81498378D01*
X50353381Y-81403140D01*
X50305762Y-81355521D01*
X50210524Y-81307901D01*
X48972429Y-81307901D02*
X49448620Y-81307901D01*
X49496239Y-81784092D01*
X49448620Y-81736473D01*
X49353381Y-81688854D01*
X49115286Y-81688854D01*
X49020048Y-81736473D01*
X48972429Y-81784092D01*
X48924810Y-81879330D01*
X48924810Y-82117425D01*
X48972429Y-82212663D01*
X49020048Y-82260282D01*
X49115286Y-82307901D01*
X49353381Y-82307901D01*
X49448620Y-82260282D01*
X49496239Y-82212663D01*
X47353381Y-82260282D02*
X47448620Y-82307901D01*
X47639096Y-82307901D01*
X47734334Y-82260282D01*
X47781953Y-82165044D01*
X47781953Y-81784092D01*
X47734334Y-81688854D01*
X47639096Y-81641235D01*
X47448620Y-81641235D01*
X47353381Y-81688854D01*
X47305762Y-81784092D01*
X47305762Y-81879330D01*
X47781953Y-81974568D01*
X46924810Y-82260282D02*
X46829572Y-82307901D01*
X46639096Y-82307901D01*
X46543858Y-82260282D01*
X46496239Y-82165044D01*
X46496239Y-82117425D01*
X46543858Y-82022187D01*
X46639096Y-81974568D01*
X46781953Y-81974568D01*
X46877191Y-81926949D01*
X46924810Y-81831711D01*
X46924810Y-81784092D01*
X46877191Y-81688854D01*
X46781953Y-81641235D01*
X46639096Y-81641235D01*
X46543858Y-81688854D01*
X46162905Y-81641235D02*
X45972429Y-82307901D01*
X45781953Y-81831711D01*
X45591477Y-82307901D01*
X45401001Y-81641235D01*
X44591477Y-82307901D02*
X44591477Y-81784092D01*
X44639096Y-81688854D01*
X44734334Y-81641235D01*
X44924810Y-81641235D01*
X45020048Y-81688854D01*
X44591477Y-82260282D02*
X44686715Y-82307901D01*
X44924810Y-82307901D01*
X45020048Y-82260282D01*
X45067667Y-82165044D01*
X45067667Y-82069806D01*
X45020048Y-81974568D01*
X44924810Y-81926949D01*
X44686715Y-81926949D01*
X44591477Y-81879330D01*
X44115286Y-82307901D02*
X44115286Y-81641235D01*
X44115286Y-81307901D02*
X44162905Y-81355521D01*
X44115286Y-81403140D01*
X44067667Y-81355521D01*
X44115286Y-81307901D01*
X44115286Y-81403140D01*
D11*
X99591477Y-79712663D02*
X96258143Y-79712663D01*
X98401001Y-82712663D01*
X94829572Y-79712663D02*
X91496239Y-82712663D01*
X91496239Y-79712663D02*
X94829572Y-82712663D01*
X87448620Y-80712663D02*
X87448620Y-82712663D01*
X88639096Y-79569806D02*
X89829572Y-81712663D01*
X86734334Y-81712663D01*
X85305762Y-79712663D02*
X81972429Y-82712663D01*
X81972429Y-79712663D02*
X85305762Y-82712663D01*
X80305762Y-79998378D02*
X80067667Y-79855521D01*
X79591477Y-79712663D01*
X78401001Y-79712663D01*
X77924810Y-79855521D01*
X77686715Y-79998378D01*
X77448620Y-80284092D01*
X77448620Y-80569806D01*
X77686715Y-80998378D01*
X80543858Y-82712663D01*
X77448620Y-82712663D01*
D10*
X151562905Y-58717425D02*
X151829572Y-58336473D01*
X152020048Y-58717425D02*
X152020048Y-57917425D01*
X151715286Y-57917425D01*
X151639096Y-57955521D01*
X151601001Y-57993616D01*
X151562905Y-58069806D01*
X151562905Y-58184092D01*
X151601001Y-58260282D01*
X151639096Y-58298378D01*
X151715286Y-58336473D01*
X152020048Y-58336473D01*
X151220048Y-58298378D02*
X150953381Y-58298378D01*
X150839096Y-58717425D02*
X151220048Y-58717425D01*
X151220048Y-57917425D01*
X150839096Y-57917425D01*
X150534334Y-58679330D02*
X150420048Y-58717425D01*
X150229572Y-58717425D01*
X150153381Y-58679330D01*
X150115286Y-58641235D01*
X150077191Y-58565044D01*
X150077191Y-58488854D01*
X150115286Y-58412663D01*
X150153381Y-58374568D01*
X150229572Y-58336473D01*
X150381953Y-58298378D01*
X150458143Y-58260282D01*
X150496239Y-58222187D01*
X150534334Y-58145997D01*
X150534334Y-58069806D01*
X150496239Y-57993616D01*
X150458143Y-57955521D01*
X150381953Y-57917425D01*
X150191477Y-57917425D01*
X150077191Y-57955521D01*
X149734334Y-58298378D02*
X149467667Y-58298378D01*
X149353381Y-58717425D02*
X149734334Y-58717425D01*
X149734334Y-57917425D01*
X149353381Y-57917425D01*
X149124810Y-57917425D02*
X148667667Y-57917425D01*
X148896239Y-58717425D02*
X148896239Y-57917425D01*
X130305762Y-56543735D02*
X130353381Y-56686592D01*
X130353381Y-56924687D01*
X130305762Y-57019925D01*
X130258143Y-57067544D01*
X130162905Y-57115163D01*
X130067667Y-57115163D01*
X129972429Y-57067544D01*
X129924810Y-57019925D01*
X129877191Y-56924687D01*
X129829572Y-56734211D01*
X129781953Y-56638973D01*
X129734334Y-56591354D01*
X129639096Y-56543735D01*
X129543858Y-56543735D01*
X129448620Y-56591354D01*
X129401001Y-56638973D01*
X129353381Y-56734211D01*
X129353381Y-56972306D01*
X129401001Y-57115163D01*
X129353381Y-57448497D02*
X130353381Y-57686592D01*
X129639096Y-57877068D01*
X130353381Y-58067544D01*
X129353381Y-58305640D01*
X130353381Y-58686592D02*
X129353381Y-58686592D01*
X129353381Y-58924687D01*
X129401001Y-59067544D01*
X129496239Y-59162782D01*
X129591477Y-59210401D01*
X129781953Y-59258021D01*
X129924810Y-59258021D01*
X130115286Y-59210401D01*
X130210524Y-59162782D01*
X130305762Y-59067544D01*
X130353381Y-58924687D01*
X130353381Y-58686592D01*
X130258143Y-60258021D02*
X130305762Y-60210401D01*
X130353381Y-60067544D01*
X130353381Y-59972306D01*
X130305762Y-59829449D01*
X130210524Y-59734211D01*
X130115286Y-59686592D01*
X129924810Y-59638973D01*
X129781953Y-59638973D01*
X129591477Y-59686592D01*
X129496239Y-59734211D01*
X129401001Y-59829449D01*
X129353381Y-59972306D01*
X129353381Y-60067544D01*
X129401001Y-60210401D01*
X129448620Y-60258021D01*
X130353381Y-61162782D02*
X130353381Y-60686592D01*
X129353381Y-60686592D01*
X130353381Y-61496116D02*
X129353381Y-61496116D01*
X130353381Y-62067544D02*
X129781953Y-61638973D01*
X129353381Y-62067544D02*
X129924810Y-61496116D01*
X127805762Y-57829449D02*
X127853381Y-57972306D01*
X127853381Y-58210401D01*
X127805762Y-58305640D01*
X127758143Y-58353259D01*
X127662905Y-58400878D01*
X127567667Y-58400878D01*
X127472429Y-58353259D01*
X127424810Y-58305640D01*
X127377191Y-58210401D01*
X127329572Y-58019925D01*
X127281953Y-57924687D01*
X127234334Y-57877068D01*
X127139096Y-57829449D01*
X127043858Y-57829449D01*
X126948620Y-57877068D01*
X126901001Y-57924687D01*
X126853381Y-58019925D01*
X126853381Y-58258021D01*
X126901001Y-58400878D01*
X126853381Y-58734211D02*
X127853381Y-58972306D01*
X127139096Y-59162782D01*
X127853381Y-59353259D01*
X126853381Y-59591354D01*
X127853381Y-59972306D02*
X126853381Y-59972306D01*
X126853381Y-60210401D01*
X126901001Y-60353259D01*
X126996239Y-60448497D01*
X127091477Y-60496116D01*
X127281953Y-60543735D01*
X127424810Y-60543735D01*
X127615286Y-60496116D01*
X127710524Y-60448497D01*
X127805762Y-60353259D01*
X127853381Y-60210401D01*
X127853381Y-59972306D01*
X127853381Y-60972306D02*
X126853381Y-60972306D01*
X126853381Y-61638973D02*
X126853381Y-61829449D01*
X126901001Y-61924687D01*
X126996239Y-62019925D01*
X127186715Y-62067544D01*
X127520048Y-62067544D01*
X127710524Y-62019925D01*
X127805762Y-61924687D01*
X127853381Y-61829449D01*
X127853381Y-61638973D01*
X127805762Y-61543735D01*
X127710524Y-61448497D01*
X127520048Y-61400878D01*
X127186715Y-61400878D01*
X126996239Y-61448497D01*
X126901001Y-61543735D01*
X126853381Y-61638973D01*
X124401001Y-59972306D02*
X124353381Y-59877068D01*
X124353381Y-59734211D01*
X124401001Y-59591354D01*
X124496239Y-59496116D01*
X124591477Y-59448497D01*
X124781953Y-59400878D01*
X124924810Y-59400878D01*
X125115286Y-59448497D01*
X125210524Y-59496116D01*
X125305762Y-59591354D01*
X125353381Y-59734211D01*
X125353381Y-59829449D01*
X125305762Y-59972306D01*
X125258143Y-60019925D01*
X124924810Y-60019925D01*
X124924810Y-59829449D01*
X125353381Y-60448497D02*
X124353381Y-60448497D01*
X125353381Y-61019925D01*
X124353381Y-61019925D01*
X125353381Y-61496116D02*
X124353381Y-61496116D01*
X124353381Y-61734211D01*
X124401001Y-61877068D01*
X124496239Y-61972306D01*
X124591477Y-62019925D01*
X124781953Y-62067544D01*
X124924810Y-62067544D01*
X125115286Y-62019925D01*
X125210524Y-61972306D01*
X125305762Y-61877068D01*
X125353381Y-61734211D01*
X125353381Y-61496116D01*
X121846238Y-59496116D02*
X122846238Y-59829449D01*
X121846238Y-60162782D01*
X122751000Y-61067544D02*
X122798619Y-61019925D01*
X122846238Y-60877068D01*
X122846238Y-60781830D01*
X122798619Y-60638973D01*
X122703381Y-60543735D01*
X122608143Y-60496116D01*
X122417667Y-60448497D01*
X122274810Y-60448497D01*
X122084334Y-60496116D01*
X121989096Y-60543735D01*
X121893858Y-60638973D01*
X121846238Y-60781830D01*
X121846238Y-60877068D01*
X121893858Y-61019925D01*
X121941477Y-61067544D01*
X122751000Y-62067544D02*
X122798619Y-62019925D01*
X122846238Y-61877068D01*
X122846238Y-61781830D01*
X122798619Y-61638973D01*
X122703381Y-61543735D01*
X122608143Y-61496116D01*
X122417667Y-61448497D01*
X122274810Y-61448497D01*
X122084334Y-61496116D01*
X121989096Y-61543735D01*
X121893858Y-61638973D01*
X121846238Y-61781830D01*
X121846238Y-61877068D01*
X121893858Y-62019925D01*
X121941477Y-62067544D01*
X111801001Y-98755521D02*
X111801001Y-98955521D01*
X111801001Y-98955521D02*
X120201002Y-98955521D01*
X116801001Y-95355521D02*
X111801001Y-95355521D01*
X122301001Y-93455521D02*
X119021001Y-93455521D01*
X122301001Y-97055521D02*
X122301001Y-96255521D01*
X122301001Y-93455521D02*
X122301001Y-93655521D01*
X111801001Y-95355521D02*
X111801001Y-96155521D01*
X119017319Y-93476992D02*
G75*
G02*
X116801001Y-95355521I-2151318J291471D01*
G01*
X122301001Y-97055520D02*
G75*
G02*
X120201002Y-98955521I-2000000J99999D01*
G01*
X130501001Y-85955521D02*
X130501001Y-85755521D01*
X130501001Y-85755521D02*
X122101000Y-85755521D01*
X125501001Y-89355521D02*
X130501001Y-89355521D01*
X120001001Y-91255521D02*
X123281001Y-91255521D01*
X120001001Y-87655521D02*
X120001001Y-88455521D01*
X120001001Y-91255521D02*
X120001001Y-91055521D01*
X130501001Y-89355521D02*
X130501001Y-88555521D01*
X123284683Y-91234050D02*
G75*
G02*
X125501001Y-89355521I2151318J-291471D01*
G01*
X120001001Y-87655522D02*
G75*
G02*
X122101000Y-85755521I2000000J-99999D01*
G01*
X111501001Y-85955521D02*
X111501001Y-85755521D01*
X111501001Y-85755521D02*
X103101000Y-85755521D01*
X106501001Y-89355521D02*
X111501001Y-89355521D01*
X101001001Y-91255521D02*
X104281001Y-91255521D01*
X101001001Y-87655521D02*
X101001001Y-88455521D01*
X101001001Y-91255521D02*
X101001001Y-91055521D01*
X111501001Y-89355521D02*
X111501001Y-88555521D01*
X104284683Y-91234050D02*
G75*
G02*
X106501001Y-89355521I2151318J-291471D01*
G01*
X101001001Y-87655522D02*
G75*
G02*
X103101000Y-85755521I2000000J-99999D01*
G01*
X92501001Y-85955521D02*
X92501001Y-85755521D01*
X92501001Y-85755521D02*
X84101000Y-85755521D01*
X87501001Y-89355521D02*
X92501001Y-89355521D01*
X82001001Y-91255521D02*
X85281001Y-91255521D01*
X82001001Y-87655521D02*
X82001001Y-88455521D01*
X82001001Y-91255521D02*
X82001001Y-91055521D01*
X92501001Y-89355521D02*
X92501001Y-88555521D01*
X85284683Y-91234050D02*
G75*
G02*
X87501001Y-89355521I2151318J-291471D01*
G01*
X82001001Y-87655522D02*
G75*
G02*
X84101000Y-85755521I2000000J-99999D01*
G01*
X73501001Y-85955521D02*
X73501001Y-85755521D01*
X73501001Y-85755521D02*
X65101000Y-85755521D01*
X68501001Y-89355521D02*
X73501001Y-89355521D01*
X63001001Y-91255521D02*
X66281001Y-91255521D01*
X63001001Y-87655521D02*
X63001001Y-88455521D01*
X63001001Y-91255521D02*
X63001001Y-91055521D01*
X73501001Y-89355521D02*
X73501001Y-88555521D01*
X66284683Y-91234050D02*
G75*
G02*
X68501001Y-89355521I2151318J-291471D01*
G01*
X63001001Y-87655522D02*
G75*
G02*
X65101000Y-85755521I2000000J-99999D01*
G01*
X54501001Y-85955521D02*
X54501001Y-85755521D01*
X54501001Y-85755521D02*
X46101000Y-85755521D01*
X49501001Y-89355521D02*
X54501001Y-89355521D01*
X44001001Y-91255521D02*
X47281001Y-91255521D01*
X44001001Y-87655521D02*
X44001001Y-88455521D01*
X44001001Y-91255521D02*
X44001001Y-91055521D01*
X54501001Y-89355521D02*
X54501001Y-88555521D01*
X47284683Y-91234050D02*
G75*
G02*
X49501001Y-89355521I2151318J-291471D01*
G01*
X44001001Y-87655522D02*
G75*
G02*
X46101000Y-85755521I2000000J-99999D01*
G01*
X35501001Y-85955521D02*
X35501001Y-85755521D01*
X35501001Y-85755521D02*
X27101000Y-85755521D01*
X30501001Y-89355521D02*
X35501001Y-89355521D01*
X25001001Y-91255521D02*
X28281001Y-91255521D01*
X25001001Y-87655521D02*
X25001001Y-88455521D01*
X25001001Y-91255521D02*
X25001001Y-91055521D01*
X35501001Y-89355521D02*
X35501001Y-88555521D01*
X28284683Y-91234050D02*
G75*
G02*
X30501001Y-89355521I2151318J-291471D01*
G01*
X25001001Y-87655522D02*
G75*
G02*
X27101000Y-85755521I2000000J-99999D01*
G01*
X16501001Y-85955521D02*
X16501001Y-85755521D01*
X16501001Y-85755521D02*
X8101000Y-85755521D01*
X11501001Y-89355521D02*
X16501001Y-89355521D01*
X6001001Y-91255521D02*
X9281001Y-91255521D01*
X6001001Y-87655521D02*
X6001001Y-88455521D01*
X6001001Y-91255521D02*
X6001001Y-91055521D01*
X16501001Y-89355521D02*
X16501001Y-88555521D01*
X9284683Y-91234050D02*
G75*
G02*
X11501001Y-89355521I2151318J-291471D01*
G01*
X6001001Y-87655522D02*
G75*
G02*
X8101000Y-85755521I2000000J-99999D01*
G01*
X130501001Y-66955521D02*
X130501001Y-66755521D01*
X130501001Y-66755521D02*
X122101000Y-66755521D01*
X125501001Y-70355521D02*
X130501001Y-70355521D01*
X120001001Y-72255521D02*
X123281001Y-72255521D01*
X120001001Y-68655521D02*
X120001001Y-69455521D01*
X120001001Y-72255521D02*
X120001001Y-72055521D01*
X130501001Y-70355521D02*
X130501001Y-69555521D01*
X123284683Y-72234050D02*
G75*
G02*
X125501001Y-70355521I2151318J-291471D01*
G01*
X120001001Y-68655522D02*
G75*
G02*
X122101000Y-66755521I2000000J-99999D01*
G01*
X111501001Y-66955521D02*
X111501001Y-66755521D01*
X111501001Y-66755521D02*
X103101000Y-66755521D01*
X106501001Y-70355521D02*
X111501001Y-70355521D01*
X101001001Y-72255521D02*
X104281001Y-72255521D01*
X101001001Y-68655521D02*
X101001001Y-69455521D01*
X101001001Y-72255521D02*
X101001001Y-72055521D01*
X111501001Y-70355521D02*
X111501001Y-69555521D01*
X104284683Y-72234050D02*
G75*
G02*
X106501001Y-70355521I2151318J-291471D01*
G01*
X101001001Y-68655522D02*
G75*
G02*
X103101000Y-66755521I2000000J-99999D01*
G01*
X92501001Y-66955521D02*
X92501001Y-66755521D01*
X92501001Y-66755521D02*
X84101000Y-66755521D01*
X87501001Y-70355521D02*
X92501001Y-70355521D01*
X82001001Y-72255521D02*
X85281001Y-72255521D01*
X82001001Y-68655521D02*
X82001001Y-69455521D01*
X82001001Y-72255521D02*
X82001001Y-72055521D01*
X92501001Y-70355521D02*
X92501001Y-69555521D01*
X85284683Y-72234050D02*
G75*
G02*
X87501001Y-70355521I2151318J-291471D01*
G01*
X82001001Y-68655522D02*
G75*
G02*
X84101000Y-66755521I2000000J-99999D01*
G01*
X73501001Y-66955521D02*
X73501001Y-66755521D01*
X73501001Y-66755521D02*
X65101000Y-66755521D01*
X68501001Y-70355521D02*
X73501001Y-70355521D01*
X63001001Y-72255521D02*
X66281001Y-72255521D01*
X63001001Y-68655521D02*
X63001001Y-69455521D01*
X63001001Y-72255521D02*
X63001001Y-72055521D01*
X73501001Y-70355521D02*
X73501001Y-69555521D01*
X66284683Y-72234050D02*
G75*
G02*
X68501001Y-70355521I2151318J-291471D01*
G01*
X63001001Y-68655522D02*
G75*
G02*
X65101000Y-66755521I2000000J-99999D01*
G01*
X54501001Y-66955521D02*
X54501001Y-66755521D01*
X54501001Y-66755521D02*
X46101000Y-66755521D01*
X49501001Y-70355521D02*
X54501001Y-70355521D01*
X44001001Y-72255521D02*
X47281001Y-72255521D01*
X44001001Y-68655521D02*
X44001001Y-69455521D01*
X44001001Y-72255521D02*
X44001001Y-72055521D01*
X54501001Y-70355521D02*
X54501001Y-69555521D01*
X47284683Y-72234050D02*
G75*
G02*
X49501001Y-70355521I2151318J-291471D01*
G01*
X44001001Y-68655522D02*
G75*
G02*
X46101000Y-66755521I2000000J-99999D01*
G01*
X35501001Y-66955521D02*
X35501001Y-66755521D01*
X35501001Y-66755521D02*
X27101000Y-66755521D01*
X30501001Y-70355521D02*
X35501001Y-70355521D01*
X25001001Y-72255521D02*
X28281001Y-72255521D01*
X25001001Y-68655521D02*
X25001001Y-69455521D01*
X25001001Y-72255521D02*
X25001001Y-72055521D01*
X35501001Y-70355521D02*
X35501001Y-69555521D01*
X28284683Y-72234050D02*
G75*
G02*
X30501001Y-70355521I2151318J-291471D01*
G01*
X25001001Y-68655522D02*
G75*
G02*
X27101000Y-66755521I2000000J-99999D01*
G01*
X16501001Y-66955521D02*
X16501001Y-66755521D01*
X16501001Y-66755521D02*
X8101000Y-66755521D01*
X11501001Y-70355521D02*
X16501001Y-70355521D01*
X6001001Y-72255521D02*
X9281001Y-72255521D01*
X6001001Y-68655521D02*
X6001001Y-69455521D01*
X6001001Y-72255521D02*
X6001001Y-72055521D01*
X16501001Y-70355521D02*
X16501001Y-69555521D01*
X9284683Y-72234050D02*
G75*
G02*
X11501001Y-70355521I2151318J-291471D01*
G01*
X6001001Y-68655522D02*
G75*
G02*
X8101000Y-66755521I2000000J-99999D01*
G01*
X130501001Y-47955521D02*
X130501001Y-47755521D01*
X130501001Y-47755521D02*
X122101000Y-47755521D01*
X125501001Y-51355521D02*
X130501001Y-51355521D01*
X120001001Y-53255521D02*
X123281001Y-53255521D01*
X120001001Y-49655521D02*
X120001001Y-50455521D01*
X120001001Y-53255521D02*
X120001001Y-53055521D01*
X130501001Y-51355521D02*
X130501001Y-50555521D01*
X123284683Y-53234050D02*
G75*
G02*
X125501001Y-51355521I2151318J-291471D01*
G01*
X120001001Y-49655522D02*
G75*
G02*
X122101000Y-47755521I2000000J-99999D01*
G01*
X111501001Y-47955521D02*
X111501001Y-47755521D01*
X111501001Y-47755521D02*
X103101000Y-47755521D01*
X106501001Y-51355521D02*
X111501001Y-51355521D01*
X101001001Y-53255521D02*
X104281001Y-53255521D01*
X101001001Y-49655521D02*
X101001001Y-50455521D01*
X101001001Y-53255521D02*
X101001001Y-53055521D01*
X111501001Y-51355521D02*
X111501001Y-50555521D01*
X104284683Y-53234050D02*
G75*
G02*
X106501001Y-51355521I2151318J-291471D01*
G01*
X101001001Y-49655522D02*
G75*
G02*
X103101000Y-47755521I2000000J-99999D01*
G01*
X92501001Y-47955521D02*
X92501001Y-47755521D01*
X92501001Y-47755521D02*
X84101000Y-47755521D01*
X87501001Y-51355521D02*
X92501001Y-51355521D01*
X82001001Y-53255521D02*
X85281001Y-53255521D01*
X82001001Y-49655521D02*
X82001001Y-50455521D01*
X82001001Y-53255521D02*
X82001001Y-53055521D01*
X92501001Y-51355521D02*
X92501001Y-50555521D01*
X85284683Y-53234050D02*
G75*
G02*
X87501001Y-51355521I2151318J-291471D01*
G01*
X82001001Y-49655522D02*
G75*
G02*
X84101000Y-47755521I2000000J-99999D01*
G01*
X73501001Y-47955521D02*
X73501001Y-47755521D01*
X73501001Y-47755521D02*
X65101000Y-47755521D01*
X68501001Y-51355521D02*
X73501001Y-51355521D01*
X63001001Y-53255521D02*
X66281001Y-53255521D01*
X63001001Y-49655521D02*
X63001001Y-50455521D01*
X63001001Y-53255521D02*
X63001001Y-53055521D01*
X73501001Y-51355521D02*
X73501001Y-50555521D01*
X66284683Y-53234050D02*
G75*
G02*
X68501001Y-51355521I2151318J-291471D01*
G01*
X63001001Y-49655522D02*
G75*
G02*
X65101000Y-47755521I2000000J-99999D01*
G01*
X54501001Y-47955521D02*
X54501001Y-47755521D01*
X54501001Y-47755521D02*
X46101000Y-47755521D01*
X49501001Y-51355521D02*
X54501001Y-51355521D01*
X44001001Y-53255521D02*
X47281001Y-53255521D01*
X44001001Y-49655521D02*
X44001001Y-50455521D01*
X44001001Y-53255521D02*
X44001001Y-53055521D01*
X54501001Y-51355521D02*
X54501001Y-50555521D01*
X47284683Y-53234050D02*
G75*
G02*
X49501001Y-51355521I2151318J-291471D01*
G01*
X44001001Y-49655522D02*
G75*
G02*
X46101000Y-47755521I2000000J-99999D01*
G01*
X35501001Y-47955521D02*
X35501001Y-47755521D01*
X35501001Y-47755521D02*
X27101000Y-47755521D01*
X30501001Y-51355521D02*
X35501001Y-51355521D01*
X25001001Y-53255521D02*
X28281001Y-53255521D01*
X25001001Y-49655521D02*
X25001001Y-50455521D01*
X25001001Y-53255521D02*
X25001001Y-53055521D01*
X35501001Y-51355521D02*
X35501001Y-50555521D01*
X28284683Y-53234050D02*
G75*
G02*
X30501001Y-51355521I2151318J-291471D01*
G01*
X25001001Y-49655522D02*
G75*
G02*
X27101000Y-47755521I2000000J-99999D01*
G01*
X16501001Y-47955521D02*
X16501001Y-47755521D01*
X16501001Y-47755521D02*
X8101000Y-47755521D01*
X11501001Y-51355521D02*
X16501001Y-51355521D01*
X6001001Y-53255521D02*
X9281001Y-53255521D01*
X6001001Y-49655521D02*
X6001001Y-50455521D01*
X6001001Y-53255521D02*
X6001001Y-53055521D01*
X16501001Y-51355521D02*
X16501001Y-50555521D01*
X9284683Y-53234050D02*
G75*
G02*
X11501001Y-51355521I2151318J-291471D01*
G01*
X6001001Y-49655522D02*
G75*
G02*
X8101000Y-47755521I2000000J-99999D01*
G01*
X130501001Y-28955521D02*
X130501001Y-28755521D01*
X130501001Y-28755521D02*
X122101000Y-28755521D01*
X125501001Y-32355521D02*
X130501001Y-32355521D01*
X120001001Y-34255521D02*
X123281001Y-34255521D01*
X120001001Y-30655521D02*
X120001001Y-31455521D01*
X120001001Y-34255521D02*
X120001001Y-34055521D01*
X130501001Y-32355521D02*
X130501001Y-31555521D01*
X123284683Y-34234050D02*
G75*
G02*
X125501001Y-32355521I2151318J-291471D01*
G01*
X120001001Y-30655522D02*
G75*
G02*
X122101000Y-28755521I2000000J-99999D01*
G01*
X111501001Y-28955521D02*
X111501001Y-28755521D01*
X111501001Y-28755521D02*
X103101000Y-28755521D01*
X106501001Y-32355521D02*
X111501001Y-32355521D01*
X101001001Y-34255521D02*
X104281001Y-34255521D01*
X101001001Y-30655521D02*
X101001001Y-31455521D01*
X101001001Y-34255521D02*
X101001001Y-34055521D01*
X111501001Y-32355521D02*
X111501001Y-31555521D01*
X104284683Y-34234050D02*
G75*
G02*
X106501001Y-32355521I2151318J-291471D01*
G01*
X101001001Y-30655522D02*
G75*
G02*
X103101000Y-28755521I2000000J-99999D01*
G01*
X92501001Y-28955521D02*
X92501001Y-28755521D01*
X92501001Y-28755521D02*
X84101000Y-28755521D01*
X87501001Y-32355521D02*
X92501001Y-32355521D01*
X82001001Y-34255521D02*
X85281001Y-34255521D01*
X82001001Y-30655521D02*
X82001001Y-31455521D01*
X82001001Y-34255521D02*
X82001001Y-34055521D01*
X92501001Y-32355521D02*
X92501001Y-31555521D01*
X85284683Y-34234050D02*
G75*
G02*
X87501001Y-32355521I2151318J-291471D01*
G01*
X82001001Y-30655522D02*
G75*
G02*
X84101000Y-28755521I2000000J-99999D01*
G01*
X73501001Y-28955521D02*
X73501001Y-28755521D01*
X73501001Y-28755521D02*
X65101000Y-28755521D01*
X68501001Y-32355521D02*
X73501001Y-32355521D01*
X63001001Y-34255521D02*
X66281001Y-34255521D01*
X63001001Y-30655521D02*
X63001001Y-31455521D01*
X63001001Y-34255521D02*
X63001001Y-34055521D01*
X73501001Y-32355521D02*
X73501001Y-31555521D01*
X66284683Y-34234050D02*
G75*
G02*
X68501001Y-32355521I2151318J-291471D01*
G01*
X63001001Y-30655522D02*
G75*
G02*
X65101000Y-28755521I2000000J-99999D01*
G01*
X54501001Y-28955521D02*
X54501001Y-28755521D01*
X54501001Y-28755521D02*
X46101000Y-28755521D01*
X49501001Y-32355521D02*
X54501001Y-32355521D01*
X44001001Y-34255521D02*
X47281001Y-34255521D01*
X44001001Y-30655521D02*
X44001001Y-31455521D01*
X44001001Y-34255521D02*
X44001001Y-34055521D01*
X54501001Y-32355521D02*
X54501001Y-31555521D01*
X47284683Y-34234050D02*
G75*
G02*
X49501001Y-32355521I2151318J-291471D01*
G01*
X44001001Y-30655522D02*
G75*
G02*
X46101000Y-28755521I2000000J-99999D01*
G01*
X35501001Y-28955521D02*
X35501001Y-28755521D01*
X35501001Y-28755521D02*
X27101000Y-28755521D01*
X30501001Y-32355521D02*
X35501001Y-32355521D01*
X25001001Y-34255521D02*
X28281001Y-34255521D01*
X25001001Y-30655521D02*
X25001001Y-31455521D01*
X25001001Y-34255521D02*
X25001001Y-34055521D01*
X35501001Y-32355521D02*
X35501001Y-31555521D01*
X28284683Y-34234050D02*
G75*
G02*
X30501001Y-32355521I2151318J-291471D01*
G01*
X25001001Y-30655522D02*
G75*
G02*
X27101000Y-28755521I2000000J-99999D01*
G01*
X16501001Y-28955521D02*
X16501001Y-28755521D01*
X16501001Y-28755521D02*
X8101000Y-28755521D01*
X11501001Y-32355521D02*
X16501001Y-32355521D01*
X6001001Y-34255521D02*
X9281001Y-34255521D01*
X6001001Y-30655521D02*
X6001001Y-31455521D01*
X6001001Y-34255521D02*
X6001001Y-34055521D01*
X16501001Y-32355521D02*
X16501001Y-31555521D01*
X9284683Y-34234050D02*
G75*
G02*
X11501001Y-32355521I2151318J-291471D01*
G01*
X6001001Y-30655522D02*
G75*
G02*
X8101000Y-28755521I2000000J-99999D01*
G01*
D12*
X148121001Y-32895521D02*
X148121001Y-30815521D01*
X143951001Y-29135521D02*
X143461001Y-29625521D01*
X142681001Y-32895521D02*
X142681001Y-30815521D01*
X146851001Y-29135521D02*
X147341001Y-29625521D01*
X146851001Y-29135521D02*
X143951001Y-29135521D01*
X146851001Y-34575521D02*
X147341001Y-34085521D01*
X146851001Y-34575521D02*
X143951001Y-34575521D01*
X143951001Y-34575521D02*
X143461001Y-34085521D01*
D10*
X146734334Y-32260282D02*
X146591477Y-32307901D01*
X146353381Y-32307901D01*
X146258143Y-32260282D01*
X146210524Y-32212663D01*
X146162905Y-32117425D01*
X146162905Y-32022187D01*
X146210524Y-31926949D01*
X146258143Y-31879330D01*
X146353381Y-31831711D01*
X146543858Y-31784092D01*
X146639096Y-31736473D01*
X146686715Y-31688854D01*
X146734334Y-31593616D01*
X146734334Y-31498378D01*
X146686715Y-31403140D01*
X146639096Y-31355521D01*
X146543858Y-31307901D01*
X146305762Y-31307901D01*
X146162905Y-31355521D01*
X145829572Y-31307901D02*
X145591477Y-32307901D01*
X145401001Y-31593616D01*
X145210524Y-32307901D01*
X144972429Y-31307901D01*
X144067667Y-32307901D02*
X144639096Y-32307901D01*
X144353381Y-32307901D02*
X144353381Y-31307901D01*
X144448620Y-31450759D01*
X144543858Y-31545997D01*
X144639096Y-31593616D01*
%LPC*%
D13*
X59401001Y-63855521D03*
X116401001Y-44855521D03*
X116401001Y-81855521D03*
X21401001Y-82855521D03*
X21401001Y-44855521D03*
D14*
X110701001Y-97475521D03*
D15*
X121481001Y-92355521D03*
X111321001Y-92355521D03*
D16*
X116401001Y-92355521D03*
D17*
X113861001Y-97435521D03*
X112591001Y-94895522D03*
X118941001Y-97435521D03*
X120211001Y-94895521D03*
D14*
X123401001Y-94935521D03*
D18*
X144901001Y-66355521D03*
D19*
X144901001Y-75755521D03*
X144901001Y-56955521D03*
D18*
X144901001Y-89855521D03*
D19*
X144901001Y-99255521D03*
X144901001Y-80455521D03*
D14*
X131601001Y-87235521D03*
D15*
X120821001Y-92355521D03*
X130981001Y-92355521D03*
D16*
X125901001Y-92355521D03*
D17*
X128441001Y-87275521D03*
X129711001Y-89815520D03*
X123361001Y-87275521D03*
X122091001Y-89815521D03*
D14*
X118901001Y-89775521D03*
X112601001Y-87235521D03*
D15*
X101821001Y-92355521D03*
X111981001Y-92355521D03*
D16*
X106901001Y-92355521D03*
D17*
X109441001Y-87275521D03*
X110711001Y-89815520D03*
X104361001Y-87275521D03*
X103091001Y-89815521D03*
D14*
X99901001Y-89775521D03*
X93601001Y-87235521D03*
D15*
X82821001Y-92355521D03*
X92981001Y-92355521D03*
D16*
X87901001Y-92355521D03*
D17*
X90441001Y-87275521D03*
X91711001Y-89815520D03*
X85361001Y-87275521D03*
X84091001Y-89815521D03*
D14*
X80901001Y-89775521D03*
X74601001Y-87235521D03*
D15*
X63821001Y-92355521D03*
X73981001Y-92355521D03*
D16*
X68901001Y-92355521D03*
D17*
X71441001Y-87275521D03*
X72711001Y-89815520D03*
X66361001Y-87275521D03*
X65091001Y-89815521D03*
D14*
X61901001Y-89775521D03*
X55601001Y-87235521D03*
D15*
X44821001Y-92355521D03*
X54981001Y-92355521D03*
D16*
X49901001Y-92355521D03*
D17*
X52441001Y-87275521D03*
X53711001Y-89815520D03*
X47361001Y-87275521D03*
X46091001Y-89815521D03*
D14*
X42901001Y-89775521D03*
X36601001Y-87235521D03*
D15*
X25821001Y-92355521D03*
X35981001Y-92355521D03*
D16*
X30901001Y-92355521D03*
D17*
X33441001Y-87275521D03*
X34711001Y-89815520D03*
X28361001Y-87275521D03*
X27091001Y-89815521D03*
D14*
X23901001Y-89775521D03*
X17601001Y-87235521D03*
D15*
X6821001Y-92355521D03*
X16981001Y-92355521D03*
D16*
X11901001Y-92355521D03*
D17*
X14441001Y-87275521D03*
X15711001Y-89815520D03*
X9361001Y-87275521D03*
X8091001Y-89815521D03*
D14*
X4901001Y-89775521D03*
X131601001Y-68235521D03*
D15*
X120821001Y-73355521D03*
X130981001Y-73355521D03*
D16*
X125901001Y-73355521D03*
D17*
X128441001Y-68275521D03*
X129711001Y-70815520D03*
X123361001Y-68275521D03*
X122091001Y-70815521D03*
D14*
X118901001Y-70775521D03*
X112601001Y-68235521D03*
D15*
X101821001Y-73355521D03*
X111981001Y-73355521D03*
D16*
X106901001Y-73355521D03*
D17*
X109441001Y-68275521D03*
X110711001Y-70815520D03*
X104361001Y-68275521D03*
X103091001Y-70815521D03*
D14*
X99901001Y-70775521D03*
X93601001Y-68235521D03*
D15*
X82821001Y-73355521D03*
X92981001Y-73355521D03*
D16*
X87901001Y-73355521D03*
D17*
X90441001Y-68275521D03*
X91711001Y-70815520D03*
X85361001Y-68275521D03*
X84091001Y-70815521D03*
D14*
X80901001Y-70775521D03*
X74601001Y-68235521D03*
D15*
X63821001Y-73355521D03*
X73981001Y-73355521D03*
D16*
X68901001Y-73355521D03*
D17*
X71441001Y-68275521D03*
X72711001Y-70815520D03*
X66361001Y-68275521D03*
X65091001Y-70815521D03*
D14*
X61901001Y-70775521D03*
X55601001Y-68235521D03*
D15*
X44821001Y-73355521D03*
X54981001Y-73355521D03*
D16*
X49901001Y-73355521D03*
D17*
X52441001Y-68275521D03*
X53711001Y-70815520D03*
X47361001Y-68275521D03*
X46091001Y-70815521D03*
D14*
X42901001Y-70775521D03*
X36601001Y-68235521D03*
D15*
X25821001Y-73355521D03*
X35981001Y-73355521D03*
D16*
X30901001Y-73355521D03*
D17*
X33441001Y-68275521D03*
X34711001Y-70815520D03*
X28361001Y-68275521D03*
X27091001Y-70815521D03*
D14*
X23901001Y-70775521D03*
X17601001Y-68235521D03*
D15*
X6821001Y-73355521D03*
X16981001Y-73355521D03*
D16*
X11901001Y-73355521D03*
D17*
X14441001Y-68275521D03*
X15711001Y-70815520D03*
X9361001Y-68275521D03*
X8091001Y-70815521D03*
D14*
X4901001Y-70775521D03*
X131601001Y-49235521D03*
D15*
X120821001Y-54355521D03*
X130981001Y-54355521D03*
D16*
X125901001Y-54355521D03*
D17*
X128441001Y-49275521D03*
X129711001Y-51815520D03*
X123361001Y-49275521D03*
X122091001Y-51815521D03*
D14*
X118901001Y-51775521D03*
X112601001Y-49235521D03*
D15*
X101821001Y-54355521D03*
X111981001Y-54355521D03*
D16*
X106901001Y-54355521D03*
D17*
X109441001Y-49275521D03*
X110711001Y-51815520D03*
X104361001Y-49275521D03*
X103091001Y-51815521D03*
D14*
X99901001Y-51775521D03*
X93601001Y-49235521D03*
D15*
X82821001Y-54355521D03*
X92981001Y-54355521D03*
D16*
X87901001Y-54355521D03*
D17*
X90441001Y-49275521D03*
X91711001Y-51815520D03*
X85361001Y-49275521D03*
X84091001Y-51815521D03*
D14*
X80901001Y-51775521D03*
X74601001Y-49235521D03*
D15*
X63821001Y-54355521D03*
X73981001Y-54355521D03*
D16*
X68901001Y-54355521D03*
D17*
X71441001Y-49275521D03*
X72711001Y-51815520D03*
X66361001Y-49275521D03*
X65091001Y-51815521D03*
D14*
X61901001Y-51775521D03*
X55601001Y-49235521D03*
D15*
X44821001Y-54355521D03*
X54981001Y-54355521D03*
D16*
X49901001Y-54355521D03*
D17*
X52441001Y-49275521D03*
X53711001Y-51815520D03*
X47361001Y-49275521D03*
X46091001Y-51815521D03*
D14*
X42901001Y-51775521D03*
X36601001Y-49235521D03*
D15*
X25821001Y-54355521D03*
X35981001Y-54355521D03*
D16*
X30901001Y-54355521D03*
D17*
X33441001Y-49275521D03*
X34711001Y-51815520D03*
X28361001Y-49275521D03*
X27091001Y-51815521D03*
D14*
X23901001Y-51775521D03*
X17601001Y-49235521D03*
D15*
X6821001Y-54355521D03*
X16981001Y-54355521D03*
D16*
X11901001Y-54355521D03*
D17*
X14441001Y-49275521D03*
X15711001Y-51815520D03*
X9361001Y-49275521D03*
X8091001Y-51815521D03*
D14*
X4901001Y-51775521D03*
X131601001Y-30235521D03*
D15*
X120821001Y-35355521D03*
X130981001Y-35355521D03*
D16*
X125901001Y-35355521D03*
D17*
X128441001Y-30275521D03*
X129711001Y-32815520D03*
X123361001Y-30275521D03*
X122091001Y-32815521D03*
D14*
X118901001Y-32775521D03*
X112601001Y-30235521D03*
D15*
X101821001Y-35355521D03*
X111981001Y-35355521D03*
D16*
X106901001Y-35355521D03*
D17*
X109441001Y-30275521D03*
X110711001Y-32815520D03*
X104361001Y-30275521D03*
X103091001Y-32815521D03*
D14*
X99901001Y-32775521D03*
X93601001Y-30235521D03*
D15*
X82821001Y-35355521D03*
X92981001Y-35355521D03*
D16*
X87901001Y-35355521D03*
D17*
X90441001Y-30275521D03*
X91711001Y-32815520D03*
X85361001Y-30275521D03*
X84091001Y-32815521D03*
D14*
X80901001Y-32775521D03*
X74601001Y-30235521D03*
D15*
X63821001Y-35355521D03*
X73981001Y-35355521D03*
D16*
X68901001Y-35355521D03*
D17*
X71441001Y-30275521D03*
X72711001Y-32815520D03*
X66361001Y-30275521D03*
X65091001Y-32815521D03*
D14*
X61901001Y-32775521D03*
X55601001Y-30235521D03*
D15*
X44821001Y-35355521D03*
X54981001Y-35355521D03*
D16*
X49901001Y-35355521D03*
D17*
X52441001Y-30275521D03*
X53711001Y-32815520D03*
X47361001Y-30275521D03*
X46091001Y-32815521D03*
D14*
X42901001Y-32775521D03*
X36601001Y-30235521D03*
D15*
X25821001Y-35355521D03*
X35981001Y-35355521D03*
D16*
X30901001Y-35355521D03*
D17*
X33441001Y-30275521D03*
X34711001Y-32815520D03*
X28361001Y-30275521D03*
X27091001Y-32815521D03*
D14*
X23901001Y-32775521D03*
X17601001Y-30235521D03*
D15*
X6821001Y-35355521D03*
X16981001Y-35355521D03*
D16*
X11901001Y-35355521D03*
D17*
X14441001Y-30275521D03*
X15711001Y-32815520D03*
X9361001Y-30275521D03*
X8091001Y-32815521D03*
D14*
X4901001Y-32775521D03*
D20*
X142301001Y-33705521D03*
X148501001Y-33705521D03*
X142301001Y-30005521D03*
X148501001Y-30005521D03*
D21*
X151401001Y-55355521D03*
D22*
X130221001Y-63855521D03*
D23*
X127681001Y-63855521D03*
X125141001Y-63855521D03*
D24*
X122601001Y-63855521D03*
D25*
X143901001Y-28355521D03*
X146901001Y-28355521D03*
M02*
