G04 #@! TF.GenerationSoftware,KiCad,Pcbnew,(5.1.6)-1*
G04 #@! TF.CreationDate,2020-05-31T11:49:10+09:00*
G04 #@! TF.ProjectId,7x4x2-pcb,37783478-322d-4706-9362-2e6b69636164,rev?*
G04 #@! TF.SameCoordinates,PX2faf080PY2faf080*
G04 #@! TF.FileFunction,Legend,Top*
G04 #@! TF.FilePolarity,Positive*
%FSLAX46Y46*%
G04 Gerber Fmt 4.6, Leading zero omitted, Abs format (unit mm)*
G04 Created by KiCad (PCBNEW (5.1.6)-1) date 2020-05-31 11:49:10*
%MOMM*%
%LPD*%
G01*
G04 APERTURE LIST*
%ADD10C,0.150000*%
%ADD11C,0.400000*%
%ADD12C,0.120000*%
%ADD13C,4.700000*%
%ADD14R,0.900000X2.000000*%
%ADD15R,2.000000X0.900000*%
%ADD16C,2.300000*%
%ADD17C,4.500000*%
%ADD18C,3.400000*%
%ADD19R,2.700000X2.800000*%
%ADD20C,3.200000*%
%ADD21R,8.000000X8.000000*%
%ADD22R,1.300000X1.600000*%
%ADD23R,2.100000X2.100000*%
%ADD24O,2.100000X2.100000*%
%ADD25C,2.100000*%
%ADD26C,1.300000*%
%ADD27R,1.100000X2.400000*%
%ADD28R,1.700000X1.200000*%
G04 APERTURE END LIST*
D10*
X121860524Y-62214925D02*
X122860524Y-61881592D01*
X121860524Y-61548259D01*
X122765286Y-60643497D02*
X122812905Y-60691116D01*
X122860524Y-60833973D01*
X122860524Y-60929211D01*
X122812905Y-61072068D01*
X122717667Y-61167306D01*
X122622429Y-61214925D01*
X122431953Y-61262544D01*
X122289096Y-61262544D01*
X122098620Y-61214925D01*
X122003382Y-61167306D01*
X121908144Y-61072068D01*
X121860524Y-60929211D01*
X121860524Y-60833973D01*
X121908144Y-60691116D01*
X121955763Y-60643497D01*
X122765286Y-59643497D02*
X122812905Y-59691116D01*
X122860524Y-59833973D01*
X122860524Y-59929211D01*
X122812905Y-60072068D01*
X122717667Y-60167306D01*
X122622429Y-60214925D01*
X122431953Y-60262544D01*
X122289096Y-60262544D01*
X122098620Y-60214925D01*
X122003382Y-60167306D01*
X121908144Y-60072068D01*
X121860524Y-59929211D01*
X121860524Y-59833973D01*
X121908144Y-59691116D01*
X121955763Y-59643497D01*
X124598620Y-61238735D02*
X124551000Y-61333973D01*
X124551000Y-61476830D01*
X124598620Y-61619687D01*
X124693858Y-61714925D01*
X124789096Y-61762544D01*
X124979572Y-61810163D01*
X125122429Y-61810163D01*
X125312905Y-61762544D01*
X125408143Y-61714925D01*
X125503381Y-61619687D01*
X125551000Y-61476830D01*
X125551000Y-61381592D01*
X125503381Y-61238735D01*
X125455762Y-61191116D01*
X125122429Y-61191116D01*
X125122429Y-61381592D01*
X125551000Y-60762544D02*
X124551000Y-60762544D01*
X125551000Y-60191116D01*
X124551000Y-60191116D01*
X125551000Y-59714925D02*
X124551000Y-59714925D01*
X124551000Y-59476830D01*
X124598620Y-59333973D01*
X124693858Y-59238735D01*
X124789096Y-59191116D01*
X124979572Y-59143497D01*
X125122429Y-59143497D01*
X125312905Y-59191116D01*
X125408143Y-59238735D01*
X125503381Y-59333973D01*
X125551000Y-59476830D01*
X125551000Y-59714925D01*
X128074810Y-61881592D02*
X128122429Y-61738735D01*
X128122429Y-61500640D01*
X128074810Y-61405401D01*
X128027191Y-61357782D01*
X127931953Y-61310163D01*
X127836715Y-61310163D01*
X127741477Y-61357782D01*
X127693858Y-61405401D01*
X127646239Y-61500640D01*
X127598620Y-61691116D01*
X127551001Y-61786354D01*
X127503382Y-61833973D01*
X127408144Y-61881592D01*
X127312906Y-61881592D01*
X127217668Y-61833973D01*
X127170049Y-61786354D01*
X127122429Y-61691116D01*
X127122429Y-61453021D01*
X127170049Y-61310163D01*
X127122429Y-60976830D02*
X128122429Y-60738735D01*
X127408144Y-60548259D01*
X128122429Y-60357782D01*
X127122429Y-60119687D01*
X128122429Y-59738735D02*
X127122429Y-59738735D01*
X127122429Y-59500640D01*
X127170049Y-59357782D01*
X127265287Y-59262544D01*
X127360525Y-59214925D01*
X127551001Y-59167306D01*
X127693858Y-59167306D01*
X127884334Y-59214925D01*
X127979572Y-59262544D01*
X128074810Y-59357782D01*
X128122429Y-59500640D01*
X128122429Y-59738735D01*
X128122429Y-58738735D02*
X127122429Y-58738735D01*
X127122429Y-58072068D02*
X127122429Y-57881592D01*
X127170049Y-57786354D01*
X127265287Y-57691116D01*
X127455763Y-57643497D01*
X127789096Y-57643497D01*
X127979572Y-57691116D01*
X128074810Y-57786354D01*
X128122429Y-57881592D01*
X128122429Y-58072068D01*
X128074810Y-58167306D01*
X127979572Y-58262544D01*
X127789096Y-58310163D01*
X127455763Y-58310163D01*
X127265287Y-58262544D01*
X127170049Y-58167306D01*
X127122429Y-58072068D01*
X130360524Y-62167306D02*
X130408143Y-62024449D01*
X130408143Y-61786354D01*
X130360524Y-61691116D01*
X130312905Y-61643497D01*
X130217667Y-61595878D01*
X130122429Y-61595878D01*
X130027191Y-61643497D01*
X129979572Y-61691116D01*
X129931953Y-61786354D01*
X129884334Y-61976830D01*
X129836715Y-62072068D01*
X129789096Y-62119687D01*
X129693858Y-62167306D01*
X129598620Y-62167306D01*
X129503382Y-62119687D01*
X129455763Y-62072068D01*
X129408143Y-61976830D01*
X129408143Y-61738735D01*
X129455763Y-61595878D01*
X129408143Y-61262544D02*
X130408143Y-61024449D01*
X129693858Y-60833973D01*
X130408143Y-60643497D01*
X129408143Y-60405401D01*
X130408143Y-60024449D02*
X129408143Y-60024449D01*
X129408143Y-59786354D01*
X129455763Y-59643497D01*
X129551001Y-59548259D01*
X129646239Y-59500640D01*
X129836715Y-59453021D01*
X129979572Y-59453021D01*
X130170048Y-59500640D01*
X130265286Y-59548259D01*
X130360524Y-59643497D01*
X130408143Y-59786354D01*
X130408143Y-60024449D01*
X130312905Y-58453021D02*
X130360524Y-58500640D01*
X130408143Y-58643497D01*
X130408143Y-58738735D01*
X130360524Y-58881592D01*
X130265286Y-58976830D01*
X130170048Y-59024449D01*
X129979572Y-59072068D01*
X129836715Y-59072068D01*
X129646239Y-59024449D01*
X129551001Y-58976830D01*
X129455763Y-58881592D01*
X129408143Y-58738735D01*
X129408143Y-58643497D01*
X129455763Y-58500640D01*
X129503382Y-58453021D01*
X130408143Y-57548259D02*
X130408143Y-58024449D01*
X129408143Y-58024449D01*
X130408143Y-57214925D02*
X129408143Y-57214925D01*
X130408143Y-56643497D02*
X129836715Y-57072068D01*
X129408143Y-56643497D02*
X129979572Y-57214925D01*
X83067667Y-81403140D02*
X83115286Y-81355521D01*
X83210524Y-81307901D01*
X83448620Y-81307901D01*
X83543858Y-81355521D01*
X83591477Y-81403140D01*
X83639096Y-81498378D01*
X83639096Y-81593616D01*
X83591477Y-81736473D01*
X83020048Y-82307901D01*
X83639096Y-82307901D01*
X84258143Y-81307901D02*
X84353381Y-81307901D01*
X84448620Y-81355521D01*
X84496239Y-81403140D01*
X84543858Y-81498378D01*
X84591477Y-81688854D01*
X84591477Y-81926949D01*
X84543858Y-82117425D01*
X84496239Y-82212663D01*
X84448620Y-82260282D01*
X84353381Y-82307901D01*
X84258143Y-82307901D01*
X84162905Y-82260282D01*
X84115286Y-82212663D01*
X84067667Y-82117425D01*
X84020048Y-81926949D01*
X84020048Y-81688854D01*
X84067667Y-81498378D01*
X84115286Y-81403140D01*
X84162905Y-81355521D01*
X84258143Y-81307901D01*
X84972429Y-81403140D02*
X85020048Y-81355521D01*
X85115286Y-81307901D01*
X85353381Y-81307901D01*
X85448620Y-81355521D01*
X85496239Y-81403140D01*
X85543858Y-81498378D01*
X85543858Y-81593616D01*
X85496239Y-81736473D01*
X84924810Y-82307901D01*
X85543858Y-82307901D01*
X86162905Y-81307901D02*
X86258143Y-81307901D01*
X86353381Y-81355521D01*
X86401001Y-81403140D01*
X86448620Y-81498378D01*
X86496239Y-81688854D01*
X86496239Y-81926949D01*
X86448620Y-82117425D01*
X86401001Y-82212663D01*
X86353381Y-82260282D01*
X86258143Y-82307901D01*
X86162905Y-82307901D01*
X86067667Y-82260282D01*
X86020048Y-82212663D01*
X85972429Y-82117425D01*
X85924810Y-81926949D01*
X85924810Y-81688854D01*
X85972429Y-81498378D01*
X86020048Y-81403140D01*
X86067667Y-81355521D01*
X86162905Y-81307901D01*
X86924810Y-82212663D02*
X86972429Y-82260282D01*
X86924810Y-82307901D01*
X86877191Y-82260282D01*
X86924810Y-82212663D01*
X86924810Y-82307901D01*
X87591477Y-81307901D02*
X87686715Y-81307901D01*
X87781953Y-81355521D01*
X87829572Y-81403140D01*
X87877191Y-81498378D01*
X87924810Y-81688854D01*
X87924810Y-81926949D01*
X87877191Y-82117425D01*
X87829572Y-82212663D01*
X87781953Y-82260282D01*
X87686715Y-82307901D01*
X87591477Y-82307901D01*
X87496239Y-82260282D01*
X87448620Y-82212663D01*
X87401001Y-82117425D01*
X87353381Y-81926949D01*
X87353381Y-81688854D01*
X87401001Y-81498378D01*
X87448620Y-81403140D01*
X87496239Y-81355521D01*
X87591477Y-81307901D01*
X88829572Y-81307901D02*
X88353381Y-81307901D01*
X88305762Y-81784092D01*
X88353381Y-81736473D01*
X88448620Y-81688854D01*
X88686715Y-81688854D01*
X88781953Y-81736473D01*
X88829572Y-81784092D01*
X88877191Y-81879330D01*
X88877191Y-82117425D01*
X88829572Y-82212663D01*
X88781953Y-82260282D01*
X88686715Y-82307901D01*
X88448620Y-82307901D01*
X88353381Y-82260282D01*
X88305762Y-82212663D01*
X90448620Y-82260282D02*
X90353381Y-82307901D01*
X90162905Y-82307901D01*
X90067667Y-82260282D01*
X90020048Y-82165044D01*
X90020048Y-81784092D01*
X90067667Y-81688854D01*
X90162905Y-81641235D01*
X90353381Y-81641235D01*
X90448620Y-81688854D01*
X90496239Y-81784092D01*
X90496239Y-81879330D01*
X90020048Y-81974568D01*
X90877191Y-82260282D02*
X90972429Y-82307901D01*
X91162905Y-82307901D01*
X91258143Y-82260282D01*
X91305762Y-82165044D01*
X91305762Y-82117425D01*
X91258143Y-82022187D01*
X91162905Y-81974568D01*
X91020048Y-81974568D01*
X90924810Y-81926949D01*
X90877191Y-81831711D01*
X90877191Y-81784092D01*
X90924810Y-81688854D01*
X91020048Y-81641235D01*
X91162905Y-81641235D01*
X91258143Y-81688854D01*
X91639096Y-81641235D02*
X91829572Y-82307901D01*
X92020048Y-81831711D01*
X92210524Y-82307901D01*
X92401001Y-81641235D01*
X93210524Y-82307901D02*
X93210524Y-81784092D01*
X93162905Y-81688854D01*
X93067667Y-81641235D01*
X92877191Y-81641235D01*
X92781953Y-81688854D01*
X93210524Y-82260282D02*
X93115286Y-82307901D01*
X92877191Y-82307901D01*
X92781953Y-82260282D01*
X92734334Y-82165044D01*
X92734334Y-82069806D01*
X92781953Y-81974568D01*
X92877191Y-81926949D01*
X93115286Y-81926949D01*
X93210524Y-81879330D01*
X93686715Y-82307901D02*
X93686715Y-81641235D01*
X93686715Y-81307901D02*
X93639096Y-81355521D01*
X93686715Y-81403140D01*
X93734334Y-81355521D01*
X93686715Y-81307901D01*
X93686715Y-81403140D01*
D11*
X38210524Y-79712663D02*
X41543858Y-79712663D01*
X39401001Y-82712663D01*
X42972429Y-79712663D02*
X46305762Y-82712663D01*
X46305762Y-79712663D02*
X42972429Y-82712663D01*
X50353381Y-80712663D02*
X50353381Y-82712663D01*
X49162905Y-79569806D02*
X47972429Y-81712663D01*
X51067667Y-81712663D01*
X52496239Y-79712663D02*
X55829572Y-82712663D01*
X55829572Y-79712663D02*
X52496239Y-82712663D01*
X57496239Y-79998378D02*
X57734334Y-79855521D01*
X58210524Y-79712663D01*
X59401001Y-79712663D01*
X59877191Y-79855521D01*
X60115286Y-79998378D01*
X60353381Y-80284092D01*
X60353381Y-80569806D01*
X60115286Y-80998378D01*
X57258143Y-82712663D01*
X60353381Y-82712663D01*
D10*
X150739096Y-26417425D02*
X150891477Y-26417425D01*
X150967667Y-26455521D01*
X151043858Y-26531711D01*
X151081953Y-26684092D01*
X151081953Y-26950759D01*
X151043858Y-27103140D01*
X150967667Y-27179330D01*
X150891477Y-27217425D01*
X150739096Y-27217425D01*
X150662905Y-27179330D01*
X150586715Y-27103140D01*
X150548620Y-26950759D01*
X150548620Y-26684092D01*
X150586715Y-26531711D01*
X150662905Y-26455521D01*
X150739096Y-26417425D01*
X151691477Y-26798378D02*
X151424810Y-26798378D01*
X151424810Y-27217425D02*
X151424810Y-26417425D01*
X151805762Y-26417425D01*
X152377191Y-26798378D02*
X152110524Y-26798378D01*
X152110524Y-27217425D02*
X152110524Y-26417425D01*
X152491477Y-26417425D01*
X139205762Y-26417425D02*
X139358143Y-26417425D01*
X139434334Y-26455521D01*
X139510524Y-26531711D01*
X139548620Y-26684092D01*
X139548620Y-26950759D01*
X139510524Y-27103140D01*
X139434334Y-27179330D01*
X139358143Y-27217425D01*
X139205762Y-27217425D01*
X139129572Y-27179330D01*
X139053381Y-27103140D01*
X139015286Y-26950759D01*
X139015286Y-26684092D01*
X139053381Y-26531711D01*
X139129572Y-26455521D01*
X139205762Y-26417425D01*
X139891477Y-27217425D02*
X139891477Y-26417425D01*
X140348620Y-27217425D01*
X140348620Y-26417425D01*
D12*
X148830001Y-39648521D02*
X153402001Y-39648521D01*
X151878001Y-50697521D02*
X150989001Y-50697521D01*
X151878001Y-50062521D02*
X151878001Y-50697521D01*
X153402001Y-50062521D02*
X151878001Y-50062521D01*
X139178001Y-39648521D02*
X139432001Y-39648521D01*
X139178001Y-50062521D02*
X139178001Y-49173521D01*
X139432001Y-50062521D02*
X139178001Y-50062521D01*
X139178001Y-39648521D02*
X139178001Y-40537521D01*
D10*
X121001001Y-95355521D02*
X121001001Y-96155521D01*
X110501001Y-93455521D02*
X110501001Y-93655521D01*
X110501001Y-97055521D02*
X110501001Y-96255521D01*
X110501001Y-93455521D02*
X113781001Y-93455521D01*
X116001001Y-95355521D02*
X121001001Y-95355521D01*
X121001001Y-98955521D02*
X112601001Y-98955522D01*
X121001001Y-98755521D02*
X121001001Y-98955521D01*
X110501000Y-97055521D02*
G75*
G03*
X112601001Y-98955522I2000001J100000D01*
G01*
X113784683Y-93476992D02*
G75*
G03*
X116001001Y-95355521I2151318J291471D01*
G01*
X121301001Y-89355521D02*
X121301001Y-88555521D01*
X131801001Y-91255521D02*
X131801001Y-91055521D01*
X131801001Y-87655521D02*
X131801001Y-88455521D01*
X131801001Y-91255521D02*
X128521001Y-91255521D01*
X126301001Y-89355521D02*
X121301001Y-89355521D01*
X121301001Y-85755521D02*
X129701001Y-85755520D01*
X121301001Y-85955521D02*
X121301001Y-85755521D01*
X131801002Y-87655521D02*
G75*
G03*
X129701001Y-85755520I-2000001J-100000D01*
G01*
X128517319Y-91234050D02*
G75*
G03*
X126301001Y-89355521I-2151318J-291471D01*
G01*
X102301001Y-89355521D02*
X102301001Y-88555521D01*
X112801001Y-91255521D02*
X112801001Y-91055521D01*
X112801001Y-87655521D02*
X112801001Y-88455521D01*
X112801001Y-91255521D02*
X109521001Y-91255521D01*
X107301001Y-89355521D02*
X102301001Y-89355521D01*
X102301001Y-85755521D02*
X110701001Y-85755520D01*
X102301001Y-85955521D02*
X102301001Y-85755521D01*
X112801002Y-87655521D02*
G75*
G03*
X110701001Y-85755520I-2000001J-100000D01*
G01*
X109517319Y-91234050D02*
G75*
G03*
X107301001Y-89355521I-2151318J-291471D01*
G01*
X83301001Y-89355521D02*
X83301001Y-88555521D01*
X93801001Y-91255521D02*
X93801001Y-91055521D01*
X93801001Y-87655521D02*
X93801001Y-88455521D01*
X93801001Y-91255521D02*
X90521001Y-91255521D01*
X88301001Y-89355521D02*
X83301001Y-89355521D01*
X83301001Y-85755521D02*
X91701001Y-85755520D01*
X83301001Y-85955521D02*
X83301001Y-85755521D01*
X93801002Y-87655521D02*
G75*
G03*
X91701001Y-85755520I-2000001J-100000D01*
G01*
X90517319Y-91234050D02*
G75*
G03*
X88301001Y-89355521I-2151318J-291471D01*
G01*
X64301001Y-89355521D02*
X64301001Y-88555521D01*
X74801001Y-91255521D02*
X74801001Y-91055521D01*
X74801001Y-87655521D02*
X74801001Y-88455521D01*
X74801001Y-91255521D02*
X71521001Y-91255521D01*
X69301001Y-89355521D02*
X64301001Y-89355521D01*
X64301001Y-85755521D02*
X72701001Y-85755520D01*
X64301001Y-85955521D02*
X64301001Y-85755521D01*
X74801002Y-87655521D02*
G75*
G03*
X72701001Y-85755520I-2000001J-100000D01*
G01*
X71517319Y-91234050D02*
G75*
G03*
X69301001Y-89355521I-2151318J-291471D01*
G01*
X45301001Y-89355521D02*
X45301001Y-88555521D01*
X55801001Y-91255521D02*
X55801001Y-91055521D01*
X55801001Y-87655521D02*
X55801001Y-88455521D01*
X55801001Y-91255521D02*
X52521001Y-91255521D01*
X50301001Y-89355521D02*
X45301001Y-89355521D01*
X45301001Y-85755521D02*
X53701001Y-85755520D01*
X45301001Y-85955521D02*
X45301001Y-85755521D01*
X55801002Y-87655521D02*
G75*
G03*
X53701001Y-85755520I-2000001J-100000D01*
G01*
X52517319Y-91234050D02*
G75*
G03*
X50301001Y-89355521I-2151318J-291471D01*
G01*
X26301001Y-89355521D02*
X26301001Y-88555521D01*
X36801001Y-91255521D02*
X36801001Y-91055521D01*
X36801001Y-87655521D02*
X36801001Y-88455521D01*
X36801001Y-91255521D02*
X33521001Y-91255521D01*
X31301001Y-89355521D02*
X26301001Y-89355521D01*
X26301001Y-85755521D02*
X34701001Y-85755520D01*
X26301001Y-85955521D02*
X26301001Y-85755521D01*
X36801002Y-87655521D02*
G75*
G03*
X34701001Y-85755520I-2000001J-100000D01*
G01*
X33517319Y-91234050D02*
G75*
G03*
X31301001Y-89355521I-2151318J-291471D01*
G01*
X7301001Y-89355521D02*
X7301001Y-88555521D01*
X17801001Y-91255521D02*
X17801001Y-91055521D01*
X17801001Y-87655521D02*
X17801001Y-88455521D01*
X17801001Y-91255521D02*
X14521001Y-91255521D01*
X12301001Y-89355521D02*
X7301001Y-89355521D01*
X7301001Y-85755521D02*
X15701001Y-85755520D01*
X7301001Y-85955521D02*
X7301001Y-85755521D01*
X17801002Y-87655521D02*
G75*
G03*
X15701001Y-85755520I-2000001J-100000D01*
G01*
X14517319Y-91234050D02*
G75*
G03*
X12301001Y-89355521I-2151318J-291471D01*
G01*
X121301001Y-70355521D02*
X121301001Y-69555521D01*
X131801001Y-72255521D02*
X131801001Y-72055521D01*
X131801001Y-68655521D02*
X131801001Y-69455521D01*
X131801001Y-72255521D02*
X128521001Y-72255521D01*
X126301001Y-70355521D02*
X121301001Y-70355521D01*
X121301001Y-66755521D02*
X129701001Y-66755520D01*
X121301001Y-66955521D02*
X121301001Y-66755521D01*
X131801002Y-68655521D02*
G75*
G03*
X129701001Y-66755520I-2000001J-100000D01*
G01*
X128517319Y-72234050D02*
G75*
G03*
X126301001Y-70355521I-2151318J-291471D01*
G01*
X102301001Y-70355521D02*
X102301001Y-69555521D01*
X112801001Y-72255521D02*
X112801001Y-72055521D01*
X112801001Y-68655521D02*
X112801001Y-69455521D01*
X112801001Y-72255521D02*
X109521001Y-72255521D01*
X107301001Y-70355521D02*
X102301001Y-70355521D01*
X102301001Y-66755521D02*
X110701001Y-66755520D01*
X102301001Y-66955521D02*
X102301001Y-66755521D01*
X112801002Y-68655521D02*
G75*
G03*
X110701001Y-66755520I-2000001J-100000D01*
G01*
X109517319Y-72234050D02*
G75*
G03*
X107301001Y-70355521I-2151318J-291471D01*
G01*
X83301001Y-70355521D02*
X83301001Y-69555521D01*
X93801001Y-72255521D02*
X93801001Y-72055521D01*
X93801001Y-68655521D02*
X93801001Y-69455521D01*
X93801001Y-72255521D02*
X90521001Y-72255521D01*
X88301001Y-70355521D02*
X83301001Y-70355521D01*
X83301001Y-66755521D02*
X91701001Y-66755520D01*
X83301001Y-66955521D02*
X83301001Y-66755521D01*
X93801002Y-68655521D02*
G75*
G03*
X91701001Y-66755520I-2000001J-100000D01*
G01*
X90517319Y-72234050D02*
G75*
G03*
X88301001Y-70355521I-2151318J-291471D01*
G01*
X64301001Y-70355521D02*
X64301001Y-69555521D01*
X74801001Y-72255521D02*
X74801001Y-72055521D01*
X74801001Y-68655521D02*
X74801001Y-69455521D01*
X74801001Y-72255521D02*
X71521001Y-72255521D01*
X69301001Y-70355521D02*
X64301001Y-70355521D01*
X64301001Y-66755521D02*
X72701001Y-66755520D01*
X64301001Y-66955521D02*
X64301001Y-66755521D01*
X74801002Y-68655521D02*
G75*
G03*
X72701001Y-66755520I-2000001J-100000D01*
G01*
X71517319Y-72234050D02*
G75*
G03*
X69301001Y-70355521I-2151318J-291471D01*
G01*
X45301001Y-70355521D02*
X45301001Y-69555521D01*
X55801001Y-72255521D02*
X55801001Y-72055521D01*
X55801001Y-68655521D02*
X55801001Y-69455521D01*
X55801001Y-72255521D02*
X52521001Y-72255521D01*
X50301001Y-70355521D02*
X45301001Y-70355521D01*
X45301001Y-66755521D02*
X53701001Y-66755520D01*
X45301001Y-66955521D02*
X45301001Y-66755521D01*
X55801002Y-68655521D02*
G75*
G03*
X53701001Y-66755520I-2000001J-100000D01*
G01*
X52517319Y-72234050D02*
G75*
G03*
X50301001Y-70355521I-2151318J-291471D01*
G01*
X26301001Y-70355521D02*
X26301001Y-69555521D01*
X36801001Y-72255521D02*
X36801001Y-72055521D01*
X36801001Y-68655521D02*
X36801001Y-69455521D01*
X36801001Y-72255521D02*
X33521001Y-72255521D01*
X31301001Y-70355521D02*
X26301001Y-70355521D01*
X26301001Y-66755521D02*
X34701001Y-66755520D01*
X26301001Y-66955521D02*
X26301001Y-66755521D01*
X36801002Y-68655521D02*
G75*
G03*
X34701001Y-66755520I-2000001J-100000D01*
G01*
X33517319Y-72234050D02*
G75*
G03*
X31301001Y-70355521I-2151318J-291471D01*
G01*
X7301001Y-70355521D02*
X7301001Y-69555521D01*
X17801001Y-72255521D02*
X17801001Y-72055521D01*
X17801001Y-68655521D02*
X17801001Y-69455521D01*
X17801001Y-72255521D02*
X14521001Y-72255521D01*
X12301001Y-70355521D02*
X7301001Y-70355521D01*
X7301001Y-66755521D02*
X15701001Y-66755520D01*
X7301001Y-66955521D02*
X7301001Y-66755521D01*
X17801002Y-68655521D02*
G75*
G03*
X15701001Y-66755520I-2000001J-100000D01*
G01*
X14517319Y-72234050D02*
G75*
G03*
X12301001Y-70355521I-2151318J-291471D01*
G01*
X121301001Y-51355521D02*
X121301001Y-50555521D01*
X131801001Y-53255521D02*
X131801001Y-53055521D01*
X131801001Y-49655521D02*
X131801001Y-50455521D01*
X131801001Y-53255521D02*
X128521001Y-53255521D01*
X126301001Y-51355521D02*
X121301001Y-51355521D01*
X121301001Y-47755521D02*
X129701001Y-47755520D01*
X121301001Y-47955521D02*
X121301001Y-47755521D01*
X131801002Y-49655521D02*
G75*
G03*
X129701001Y-47755520I-2000001J-100000D01*
G01*
X128517319Y-53234050D02*
G75*
G03*
X126301001Y-51355521I-2151318J-291471D01*
G01*
X102301001Y-51355521D02*
X102301001Y-50555521D01*
X112801001Y-53255521D02*
X112801001Y-53055521D01*
X112801001Y-49655521D02*
X112801001Y-50455521D01*
X112801001Y-53255521D02*
X109521001Y-53255521D01*
X107301001Y-51355521D02*
X102301001Y-51355521D01*
X102301001Y-47755521D02*
X110701001Y-47755520D01*
X102301001Y-47955521D02*
X102301001Y-47755521D01*
X112801002Y-49655521D02*
G75*
G03*
X110701001Y-47755520I-2000001J-100000D01*
G01*
X109517319Y-53234050D02*
G75*
G03*
X107301001Y-51355521I-2151318J-291471D01*
G01*
X83301001Y-51355521D02*
X83301001Y-50555521D01*
X93801001Y-53255521D02*
X93801001Y-53055521D01*
X93801001Y-49655521D02*
X93801001Y-50455521D01*
X93801001Y-53255521D02*
X90521001Y-53255521D01*
X88301001Y-51355521D02*
X83301001Y-51355521D01*
X83301001Y-47755521D02*
X91701001Y-47755520D01*
X83301001Y-47955521D02*
X83301001Y-47755521D01*
X93801002Y-49655521D02*
G75*
G03*
X91701001Y-47755520I-2000001J-100000D01*
G01*
X90517319Y-53234050D02*
G75*
G03*
X88301001Y-51355521I-2151318J-291471D01*
G01*
X64301001Y-51355521D02*
X64301001Y-50555521D01*
X74801001Y-53255521D02*
X74801001Y-53055521D01*
X74801001Y-49655521D02*
X74801001Y-50455521D01*
X74801001Y-53255521D02*
X71521001Y-53255521D01*
X69301001Y-51355521D02*
X64301001Y-51355521D01*
X64301001Y-47755521D02*
X72701001Y-47755520D01*
X64301001Y-47955521D02*
X64301001Y-47755521D01*
X74801002Y-49655521D02*
G75*
G03*
X72701001Y-47755520I-2000001J-100000D01*
G01*
X71517319Y-53234050D02*
G75*
G03*
X69301001Y-51355521I-2151318J-291471D01*
G01*
X45301001Y-51355521D02*
X45301001Y-50555521D01*
X55801001Y-53255521D02*
X55801001Y-53055521D01*
X55801001Y-49655521D02*
X55801001Y-50455521D01*
X55801001Y-53255521D02*
X52521001Y-53255521D01*
X50301001Y-51355521D02*
X45301001Y-51355521D01*
X45301001Y-47755521D02*
X53701001Y-47755520D01*
X45301001Y-47955521D02*
X45301001Y-47755521D01*
X55801002Y-49655521D02*
G75*
G03*
X53701001Y-47755520I-2000001J-100000D01*
G01*
X52517319Y-53234050D02*
G75*
G03*
X50301001Y-51355521I-2151318J-291471D01*
G01*
X26301001Y-51355521D02*
X26301001Y-50555521D01*
X36801001Y-53255521D02*
X36801001Y-53055521D01*
X36801001Y-49655521D02*
X36801001Y-50455521D01*
X36801001Y-53255521D02*
X33521001Y-53255521D01*
X31301001Y-51355521D02*
X26301001Y-51355521D01*
X26301001Y-47755521D02*
X34701001Y-47755520D01*
X26301001Y-47955521D02*
X26301001Y-47755521D01*
X36801002Y-49655521D02*
G75*
G03*
X34701001Y-47755520I-2000001J-100000D01*
G01*
X33517319Y-53234050D02*
G75*
G03*
X31301001Y-51355521I-2151318J-291471D01*
G01*
X7301001Y-51355521D02*
X7301001Y-50555521D01*
X17801001Y-53255521D02*
X17801001Y-53055521D01*
X17801001Y-49655521D02*
X17801001Y-50455521D01*
X17801001Y-53255521D02*
X14521001Y-53255521D01*
X12301001Y-51355521D02*
X7301001Y-51355521D01*
X7301001Y-47755521D02*
X15701001Y-47755520D01*
X7301001Y-47955521D02*
X7301001Y-47755521D01*
X17801002Y-49655521D02*
G75*
G03*
X15701001Y-47755520I-2000001J-100000D01*
G01*
X14517319Y-53234050D02*
G75*
G03*
X12301001Y-51355521I-2151318J-291471D01*
G01*
X121301001Y-32355521D02*
X121301001Y-31555521D01*
X131801001Y-34255521D02*
X131801001Y-34055521D01*
X131801001Y-30655521D02*
X131801001Y-31455521D01*
X131801001Y-34255521D02*
X128521001Y-34255521D01*
X126301001Y-32355521D02*
X121301001Y-32355521D01*
X121301001Y-28755521D02*
X129701001Y-28755520D01*
X121301001Y-28955521D02*
X121301001Y-28755521D01*
X131801002Y-30655521D02*
G75*
G03*
X129701001Y-28755520I-2000001J-100000D01*
G01*
X128517319Y-34234050D02*
G75*
G03*
X126301001Y-32355521I-2151318J-291471D01*
G01*
X102301001Y-32355521D02*
X102301001Y-31555521D01*
X112801001Y-34255521D02*
X112801001Y-34055521D01*
X112801001Y-30655521D02*
X112801001Y-31455521D01*
X112801001Y-34255521D02*
X109521001Y-34255521D01*
X107301001Y-32355521D02*
X102301001Y-32355521D01*
X102301001Y-28755521D02*
X110701001Y-28755520D01*
X102301001Y-28955521D02*
X102301001Y-28755521D01*
X112801002Y-30655521D02*
G75*
G03*
X110701001Y-28755520I-2000001J-100000D01*
G01*
X109517319Y-34234050D02*
G75*
G03*
X107301001Y-32355521I-2151318J-291471D01*
G01*
X83301001Y-32355521D02*
X83301001Y-31555521D01*
X93801001Y-34255521D02*
X93801001Y-34055521D01*
X93801001Y-30655521D02*
X93801001Y-31455521D01*
X93801001Y-34255521D02*
X90521001Y-34255521D01*
X88301001Y-32355521D02*
X83301001Y-32355521D01*
X83301001Y-28755521D02*
X91701001Y-28755520D01*
X83301001Y-28955521D02*
X83301001Y-28755521D01*
X93801002Y-30655521D02*
G75*
G03*
X91701001Y-28755520I-2000001J-100000D01*
G01*
X90517319Y-34234050D02*
G75*
G03*
X88301001Y-32355521I-2151318J-291471D01*
G01*
X64301001Y-32355521D02*
X64301001Y-31555521D01*
X74801001Y-34255521D02*
X74801001Y-34055521D01*
X74801001Y-30655521D02*
X74801001Y-31455521D01*
X74801001Y-34255521D02*
X71521001Y-34255521D01*
X69301001Y-32355521D02*
X64301001Y-32355521D01*
X64301001Y-28755521D02*
X72701001Y-28755520D01*
X64301001Y-28955521D02*
X64301001Y-28755521D01*
X74801002Y-30655521D02*
G75*
G03*
X72701001Y-28755520I-2000001J-100000D01*
G01*
X71517319Y-34234050D02*
G75*
G03*
X69301001Y-32355521I-2151318J-291471D01*
G01*
X45301001Y-32355521D02*
X45301001Y-31555521D01*
X55801001Y-34255521D02*
X55801001Y-34055521D01*
X55801001Y-30655521D02*
X55801001Y-31455521D01*
X55801001Y-34255521D02*
X52521001Y-34255521D01*
X50301001Y-32355521D02*
X45301001Y-32355521D01*
X45301001Y-28755521D02*
X53701001Y-28755520D01*
X45301001Y-28955521D02*
X45301001Y-28755521D01*
X55801002Y-30655521D02*
G75*
G03*
X53701001Y-28755520I-2000001J-100000D01*
G01*
X52517319Y-34234050D02*
G75*
G03*
X50301001Y-32355521I-2151318J-291471D01*
G01*
X26301001Y-32355521D02*
X26301001Y-31555521D01*
X36801001Y-34255521D02*
X36801001Y-34055521D01*
X36801001Y-30655521D02*
X36801001Y-31455521D01*
X36801001Y-34255521D02*
X33521001Y-34255521D01*
X31301001Y-32355521D02*
X26301001Y-32355521D01*
X26301001Y-28755521D02*
X34701001Y-28755520D01*
X26301001Y-28955521D02*
X26301001Y-28755521D01*
X36801002Y-30655521D02*
G75*
G03*
X34701001Y-28755520I-2000001J-100000D01*
G01*
X33517319Y-34234050D02*
G75*
G03*
X31301001Y-32355521I-2151318J-291471D01*
G01*
X7301001Y-32355521D02*
X7301001Y-31555521D01*
X17801001Y-34255521D02*
X17801001Y-34055521D01*
X17801001Y-30655521D02*
X17801001Y-31455521D01*
X17801001Y-34255521D02*
X14521001Y-34255521D01*
X12301001Y-32355521D02*
X7301001Y-32355521D01*
X7301001Y-28755521D02*
X15701001Y-28755520D01*
X7301001Y-28955521D02*
X7301001Y-28755521D01*
X17801002Y-30655521D02*
G75*
G03*
X15701001Y-28755520I-2000001J-100000D01*
G01*
X14517319Y-34234050D02*
G75*
G03*
X12301001Y-32355521I-2151318J-291471D01*
G01*
D12*
X137651001Y-76855521D02*
X137651001Y-78855521D01*
X137651001Y-78855521D02*
X141551001Y-78855521D01*
X137651001Y-76855521D02*
X141551001Y-76855521D01*
X152151001Y-78855521D02*
X152151001Y-76855521D01*
X152151001Y-76855521D02*
X148251001Y-76855521D01*
X152151001Y-78855521D02*
X148251001Y-78855521D01*
X138811001Y-28753457D02*
X138811001Y-29957585D01*
X136991001Y-28753457D02*
X136991001Y-29957585D01*
X122601001Y-65125521D02*
X121331001Y-65125521D01*
X121331001Y-65125521D02*
X121331001Y-63855521D01*
X136391001Y-40651788D02*
X136391001Y-40309254D01*
X137411001Y-40651788D02*
X137411001Y-40309254D01*
D10*
X148751001Y-29705521D02*
X148751001Y-27005521D01*
X142051001Y-29705521D02*
X142051001Y-27005521D01*
X148751001Y-27005521D02*
X142051001Y-27005521D01*
X58639096Y-19307901D02*
X58639096Y-18307901D01*
X58639096Y-18784092D02*
X59210524Y-18784092D01*
X59210524Y-19307901D02*
X59210524Y-18307901D01*
X60162905Y-18307901D02*
X59686715Y-18307901D01*
X59639096Y-18784092D01*
X59686715Y-18736473D01*
X59781953Y-18688854D01*
X60020048Y-18688854D01*
X60115286Y-18736473D01*
X60162905Y-18784092D01*
X60210524Y-18879330D01*
X60210524Y-19117425D01*
X60162905Y-19212663D01*
X60115286Y-19260282D01*
X60020048Y-19307901D01*
X59781953Y-19307901D01*
X59686715Y-19260282D01*
X59639096Y-19212663D01*
X143539096Y-44207901D02*
X143539096Y-45017425D01*
X143586715Y-45112663D01*
X143634334Y-45160282D01*
X143729572Y-45207901D01*
X143920048Y-45207901D01*
X144015286Y-45160282D01*
X144062905Y-45112663D01*
X144110524Y-45017425D01*
X144110524Y-44207901D01*
X145110524Y-45207901D02*
X144539096Y-45207901D01*
X144824810Y-45207901D02*
X144824810Y-44207901D01*
X144729572Y-44350759D01*
X144634334Y-44445997D01*
X144539096Y-44493616D01*
X115639096Y-20307901D02*
X115639096Y-19307901D01*
X115639096Y-19784092D02*
X116210524Y-19784092D01*
X116210524Y-20307901D02*
X116210524Y-19307901D01*
X116639096Y-19403140D02*
X116686715Y-19355521D01*
X116781953Y-19307901D01*
X117020048Y-19307901D01*
X117115286Y-19355521D01*
X117162905Y-19403140D01*
X117210524Y-19498378D01*
X117210524Y-19593616D01*
X117162905Y-19736473D01*
X116591477Y-20307901D01*
X117210524Y-20307901D01*
X115139096Y-108807901D02*
X115139096Y-107807901D01*
X115139096Y-108284092D02*
X115710524Y-108284092D01*
X115710524Y-108807901D02*
X115710524Y-107807901D01*
X116615286Y-108141235D02*
X116615286Y-108807901D01*
X116377191Y-107760282D02*
X116139096Y-108474568D01*
X116758143Y-108474568D01*
X20639096Y-106807901D02*
X20639096Y-105807901D01*
X20639096Y-106284092D02*
X21210524Y-106284092D01*
X21210524Y-106807901D02*
X21210524Y-105807901D01*
X21591477Y-105807901D02*
X22210524Y-105807901D01*
X21877191Y-106188854D01*
X22020048Y-106188854D01*
X22115286Y-106236473D01*
X22162905Y-106284092D01*
X22210524Y-106379330D01*
X22210524Y-106617425D01*
X22162905Y-106712663D01*
X22115286Y-106760282D01*
X22020048Y-106807901D01*
X21734334Y-106807901D01*
X21639096Y-106760282D01*
X21591477Y-106712663D01*
X20639096Y-21807901D02*
X20639096Y-20807901D01*
X20639096Y-21284092D02*
X21210524Y-21284092D01*
X21210524Y-21807901D02*
X21210524Y-20807901D01*
X22210524Y-21807901D02*
X21639096Y-21807901D01*
X21924810Y-21807901D02*
X21924810Y-20807901D01*
X21829572Y-20950759D01*
X21734334Y-21045997D01*
X21639096Y-21093616D01*
X138853381Y-66688854D02*
X139567667Y-66688854D01*
X139710524Y-66736473D01*
X139805762Y-66831711D01*
X139853381Y-66974568D01*
X139853381Y-67069806D01*
X139186715Y-65784092D02*
X139853381Y-65784092D01*
X138805762Y-66022187D02*
X139520048Y-66260282D01*
X139520048Y-65641235D01*
X138853381Y-90188854D02*
X139567667Y-90188854D01*
X139710524Y-90236473D01*
X139805762Y-90331711D01*
X139853381Y-90474568D01*
X139853381Y-90569806D01*
X138853381Y-89807901D02*
X138853381Y-89188854D01*
X139234334Y-89522187D01*
X139234334Y-89379330D01*
X139281953Y-89284092D01*
X139329572Y-89236473D01*
X139424810Y-89188854D01*
X139662905Y-89188854D01*
X139758143Y-89236473D01*
X139805762Y-89284092D01*
X139853381Y-89379330D01*
X139853381Y-89665044D01*
X139805762Y-89760282D01*
X139758143Y-89807901D01*
X139162905Y-76307901D02*
X139162905Y-75307901D01*
X139401001Y-75307901D01*
X139543858Y-75355521D01*
X139639096Y-75450759D01*
X139686715Y-75545997D01*
X139734334Y-75736473D01*
X139734334Y-75879330D01*
X139686715Y-76069806D01*
X139639096Y-76165044D01*
X139543858Y-76260282D01*
X139401001Y-76307901D01*
X139162905Y-76307901D01*
X140115286Y-75403140D02*
X140162905Y-75355521D01*
X140258143Y-75307901D01*
X140496239Y-75307901D01*
X140591477Y-75355521D01*
X140639096Y-75403140D01*
X140686715Y-75498378D01*
X140686715Y-75593616D01*
X140639096Y-75736473D01*
X140067667Y-76307901D01*
X140686715Y-76307901D01*
X149362905Y-76207901D02*
X149362905Y-75207901D01*
X149601001Y-75207901D01*
X149743858Y-75255521D01*
X149839096Y-75350759D01*
X149886715Y-75445997D01*
X149934334Y-75636473D01*
X149934334Y-75779330D01*
X149886715Y-75969806D01*
X149839096Y-76065044D01*
X149743858Y-76160282D01*
X149601001Y-76207901D01*
X149362905Y-76207901D01*
X150886715Y-76207901D02*
X150315286Y-76207901D01*
X150601001Y-76207901D02*
X150601001Y-75207901D01*
X150505762Y-75350759D01*
X150410524Y-75445997D01*
X150315286Y-75493616D01*
X136258143Y-29522187D02*
X136305762Y-29569806D01*
X136353381Y-29712663D01*
X136353381Y-29807901D01*
X136305762Y-29950759D01*
X136210524Y-30045997D01*
X136115286Y-30093616D01*
X135924810Y-30141235D01*
X135781953Y-30141235D01*
X135591477Y-30093616D01*
X135496239Y-30045997D01*
X135401001Y-29950759D01*
X135353381Y-29807901D01*
X135353381Y-29712663D01*
X135401001Y-29569806D01*
X135448620Y-29522187D01*
X135448620Y-29141235D02*
X135401001Y-29093616D01*
X135353381Y-28998378D01*
X135353381Y-28760282D01*
X135401001Y-28665044D01*
X135448620Y-28617425D01*
X135543858Y-28569806D01*
X135639096Y-28569806D01*
X135781953Y-28617425D01*
X136353381Y-29188854D01*
X136353381Y-28569806D01*
X119887667Y-64307901D02*
X119887667Y-65022187D01*
X119840048Y-65165044D01*
X119744810Y-65260282D01*
X119601953Y-65307901D01*
X119506715Y-65307901D01*
X120316239Y-64403140D02*
X120363858Y-64355521D01*
X120459096Y-64307901D01*
X120697191Y-64307901D01*
X120792429Y-64355521D01*
X120840048Y-64403140D01*
X120887667Y-64498378D01*
X120887667Y-64593616D01*
X120840048Y-64736473D01*
X120268620Y-65307901D01*
X120887667Y-65307901D01*
X135828143Y-40647187D02*
X135875762Y-40694806D01*
X135923381Y-40837663D01*
X135923381Y-40932901D01*
X135875762Y-41075759D01*
X135780524Y-41170997D01*
X135685286Y-41218616D01*
X135494810Y-41266235D01*
X135351953Y-41266235D01*
X135161477Y-41218616D01*
X135066239Y-41170997D01*
X134971001Y-41075759D01*
X134923381Y-40932901D01*
X134923381Y-40837663D01*
X134971001Y-40694806D01*
X135018620Y-40647187D01*
X135923381Y-39694806D02*
X135923381Y-40266235D01*
X135923381Y-39980521D02*
X134923381Y-39980521D01*
X135066239Y-40075759D01*
X135161477Y-40170997D01*
X135209096Y-40266235D01*
X144067667Y-33160282D02*
X144210524Y-33207901D01*
X144448620Y-33207901D01*
X144543858Y-33160282D01*
X144591477Y-33112663D01*
X144639096Y-33017425D01*
X144639096Y-32922187D01*
X144591477Y-32826949D01*
X144543858Y-32779330D01*
X144448620Y-32731711D01*
X144258143Y-32684092D01*
X144162905Y-32636473D01*
X144115286Y-32588854D01*
X144067667Y-32493616D01*
X144067667Y-32398378D01*
X144115286Y-32303140D01*
X144162905Y-32255521D01*
X144258143Y-32207901D01*
X144496239Y-32207901D01*
X144639096Y-32255521D01*
X144972429Y-32207901D02*
X145210524Y-33207901D01*
X145401001Y-32493616D01*
X145591477Y-33207901D01*
X145829572Y-32207901D01*
X146162905Y-32303140D02*
X146210524Y-32255521D01*
X146305762Y-32207901D01*
X146543858Y-32207901D01*
X146639096Y-32255521D01*
X146686715Y-32303140D01*
X146734334Y-32398378D01*
X146734334Y-32493616D01*
X146686715Y-32636473D01*
X146115286Y-33207901D01*
X146734334Y-33207901D01*
%LPC*%
D13*
X59401001Y-63855521D03*
D14*
X148251001Y-39755521D03*
X147501001Y-39755521D03*
X146751001Y-39755521D03*
X146001001Y-39755521D03*
X145251001Y-39755521D03*
X144501001Y-39755521D03*
X143751001Y-39755521D03*
X143001001Y-39755521D03*
X142251001Y-39755521D03*
X141501001Y-39755521D03*
X140751001Y-39755521D03*
X140001001Y-39755521D03*
D15*
X139401001Y-41105521D03*
X139401001Y-41855521D03*
X139401001Y-42605521D03*
X139401001Y-43355521D03*
X139401001Y-44105521D03*
X139401001Y-44855521D03*
X139401001Y-45605521D03*
X139401001Y-46355521D03*
X139401001Y-47105521D03*
X139401001Y-47855521D03*
X139401001Y-48605521D03*
D14*
X140001001Y-49955521D03*
X140751001Y-49955521D03*
X141501001Y-49955521D03*
X142251001Y-49955521D03*
X143001001Y-49955521D03*
X143751001Y-49955521D03*
X144501001Y-49955521D03*
X145251001Y-49955521D03*
X146001001Y-49955521D03*
X146751001Y-49955521D03*
X147501001Y-49955521D03*
X148251001Y-49955521D03*
X149001001Y-49955521D03*
X149751001Y-49955521D03*
X150501001Y-49955521D03*
X151251001Y-49955521D03*
D13*
X116401001Y-44855521D03*
X116401001Y-81855521D03*
X21401001Y-82855521D03*
X21401001Y-44855521D03*
D16*
X121481001Y-92355521D03*
X111321001Y-92355521D03*
D17*
X116401001Y-92355521D03*
D18*
X113861001Y-97435521D03*
X112591001Y-94895522D03*
X118941001Y-97435521D03*
X120211001Y-94895521D03*
D19*
X122101001Y-97475521D03*
X109401001Y-94935521D03*
D20*
X144901001Y-75755521D03*
X144901001Y-56955521D03*
D21*
X144901001Y-66355521D03*
D20*
X144901001Y-99255521D03*
X144901001Y-80455521D03*
D21*
X144901001Y-89855521D03*
D16*
X120821001Y-92355521D03*
X130981001Y-92355521D03*
D17*
X125901001Y-92355521D03*
D18*
X128441001Y-87275521D03*
X129711001Y-89815520D03*
X123361001Y-87275521D03*
X122091001Y-89815521D03*
D19*
X120201001Y-87235521D03*
X132901001Y-89775521D03*
D16*
X101821001Y-92355521D03*
X111981001Y-92355521D03*
D17*
X106901001Y-92355521D03*
D18*
X109441001Y-87275521D03*
X110711001Y-89815520D03*
X104361001Y-87275521D03*
X103091001Y-89815521D03*
D19*
X101201001Y-87235521D03*
X113901001Y-89775521D03*
D16*
X82821001Y-92355521D03*
X92981001Y-92355521D03*
D17*
X87901001Y-92355521D03*
D18*
X90441001Y-87275521D03*
X91711001Y-89815520D03*
X85361001Y-87275521D03*
X84091001Y-89815521D03*
D19*
X82201001Y-87235521D03*
X94901001Y-89775521D03*
D16*
X63821001Y-92355521D03*
X73981001Y-92355521D03*
D17*
X68901001Y-92355521D03*
D18*
X71441001Y-87275521D03*
X72711001Y-89815520D03*
X66361001Y-87275521D03*
X65091001Y-89815521D03*
D19*
X63201001Y-87235521D03*
X75901001Y-89775521D03*
D16*
X44821001Y-92355521D03*
X54981001Y-92355521D03*
D17*
X49901001Y-92355521D03*
D18*
X52441001Y-87275521D03*
X53711001Y-89815520D03*
X47361001Y-87275521D03*
X46091001Y-89815521D03*
D19*
X44201001Y-87235521D03*
X56901001Y-89775521D03*
D16*
X25821001Y-92355521D03*
X35981001Y-92355521D03*
D17*
X30901001Y-92355521D03*
D18*
X33441001Y-87275521D03*
X34711001Y-89815520D03*
X28361001Y-87275521D03*
X27091001Y-89815521D03*
D19*
X25201001Y-87235521D03*
X37901001Y-89775521D03*
D16*
X6821001Y-92355521D03*
X16981001Y-92355521D03*
D17*
X11901001Y-92355521D03*
D18*
X14441001Y-87275521D03*
X15711001Y-89815520D03*
X9361001Y-87275521D03*
X8091001Y-89815521D03*
D19*
X6201001Y-87235521D03*
X18901001Y-89775521D03*
D16*
X120821001Y-73355521D03*
X130981001Y-73355521D03*
D17*
X125901001Y-73355521D03*
D18*
X128441001Y-68275521D03*
X129711001Y-70815520D03*
X123361001Y-68275521D03*
X122091001Y-70815521D03*
D19*
X120201001Y-68235521D03*
X132901001Y-70775521D03*
D16*
X101821001Y-73355521D03*
X111981001Y-73355521D03*
D17*
X106901001Y-73355521D03*
D18*
X109441001Y-68275521D03*
X110711001Y-70815520D03*
X104361001Y-68275521D03*
X103091001Y-70815521D03*
D19*
X101201001Y-68235521D03*
X113901001Y-70775521D03*
D16*
X82821001Y-73355521D03*
X92981001Y-73355521D03*
D17*
X87901001Y-73355521D03*
D18*
X90441001Y-68275521D03*
X91711001Y-70815520D03*
X85361001Y-68275521D03*
X84091001Y-70815521D03*
D19*
X82201001Y-68235521D03*
X94901001Y-70775521D03*
D16*
X63821001Y-73355521D03*
X73981001Y-73355521D03*
D17*
X68901001Y-73355521D03*
D18*
X71441001Y-68275521D03*
X72711001Y-70815520D03*
X66361001Y-68275521D03*
X65091001Y-70815521D03*
D19*
X63201001Y-68235521D03*
X75901001Y-70775521D03*
D16*
X44821001Y-73355521D03*
X54981001Y-73355521D03*
D17*
X49901001Y-73355521D03*
D18*
X52441001Y-68275521D03*
X53711001Y-70815520D03*
X47361001Y-68275521D03*
X46091001Y-70815521D03*
D19*
X44201001Y-68235521D03*
X56901001Y-70775521D03*
D16*
X25821001Y-73355521D03*
X35981001Y-73355521D03*
D17*
X30901001Y-73355521D03*
D18*
X33441001Y-68275521D03*
X34711001Y-70815520D03*
X28361001Y-68275521D03*
X27091001Y-70815521D03*
D19*
X25201001Y-68235521D03*
X37901001Y-70775521D03*
D16*
X6821001Y-73355521D03*
X16981001Y-73355521D03*
D17*
X11901001Y-73355521D03*
D18*
X14441001Y-68275521D03*
X15711001Y-70815520D03*
X9361001Y-68275521D03*
X8091001Y-70815521D03*
D19*
X6201001Y-68235521D03*
X18901001Y-70775521D03*
D16*
X120821001Y-54355521D03*
X130981001Y-54355521D03*
D17*
X125901001Y-54355521D03*
D18*
X128441001Y-49275521D03*
X129711001Y-51815520D03*
X123361001Y-49275521D03*
X122091001Y-51815521D03*
D19*
X120201001Y-49235521D03*
X132901001Y-51775521D03*
D16*
X101821001Y-54355521D03*
X111981001Y-54355521D03*
D17*
X106901001Y-54355521D03*
D18*
X109441001Y-49275521D03*
X110711001Y-51815520D03*
X104361001Y-49275521D03*
X103091001Y-51815521D03*
D19*
X101201001Y-49235521D03*
X113901001Y-51775521D03*
D16*
X82821001Y-54355521D03*
X92981001Y-54355521D03*
D17*
X87901001Y-54355521D03*
D18*
X90441001Y-49275521D03*
X91711001Y-51815520D03*
X85361001Y-49275521D03*
X84091001Y-51815521D03*
D19*
X82201001Y-49235521D03*
X94901001Y-51775521D03*
D16*
X63821001Y-54355521D03*
X73981001Y-54355521D03*
D17*
X68901001Y-54355521D03*
D18*
X71441001Y-49275521D03*
X72711001Y-51815520D03*
X66361001Y-49275521D03*
X65091001Y-51815521D03*
D19*
X63201001Y-49235521D03*
X75901001Y-51775521D03*
D16*
X44821001Y-54355521D03*
X54981001Y-54355521D03*
D17*
X49901001Y-54355521D03*
D18*
X52441001Y-49275521D03*
X53711001Y-51815520D03*
X47361001Y-49275521D03*
X46091001Y-51815521D03*
D19*
X44201001Y-49235521D03*
X56901001Y-51775521D03*
D16*
X25821001Y-54355521D03*
X35981001Y-54355521D03*
D17*
X30901001Y-54355521D03*
D18*
X33441001Y-49275521D03*
X34711001Y-51815520D03*
X28361001Y-49275521D03*
X27091001Y-51815521D03*
D19*
X25201001Y-49235521D03*
X37901001Y-51775521D03*
D16*
X6821001Y-54355521D03*
X16981001Y-54355521D03*
D17*
X11901001Y-54355521D03*
D18*
X14441001Y-49275521D03*
X15711001Y-51815520D03*
X9361001Y-49275521D03*
X8091001Y-51815521D03*
D19*
X6201001Y-49235521D03*
X18901001Y-51775521D03*
D16*
X120821001Y-35355521D03*
X130981001Y-35355521D03*
D17*
X125901001Y-35355521D03*
D18*
X128441001Y-30275521D03*
X129711001Y-32815520D03*
X123361001Y-30275521D03*
X122091001Y-32815521D03*
D19*
X120201001Y-30235521D03*
X132901001Y-32775521D03*
D16*
X101821001Y-35355521D03*
X111981001Y-35355521D03*
D17*
X106901001Y-35355521D03*
D18*
X109441001Y-30275521D03*
X110711001Y-32815520D03*
X104361001Y-30275521D03*
X103091001Y-32815521D03*
D19*
X101201001Y-30235521D03*
X113901001Y-32775521D03*
D16*
X82821001Y-35355521D03*
X92981001Y-35355521D03*
D17*
X87901001Y-35355521D03*
D18*
X90441001Y-30275521D03*
X91711001Y-32815520D03*
X85361001Y-30275521D03*
X84091001Y-32815521D03*
D19*
X82201001Y-30235521D03*
X94901001Y-32775521D03*
D16*
X63821001Y-35355521D03*
X73981001Y-35355521D03*
D17*
X68901001Y-35355521D03*
D18*
X71441001Y-30275521D03*
X72711001Y-32815520D03*
X66361001Y-30275521D03*
X65091001Y-32815521D03*
D19*
X63201001Y-30235521D03*
X75901001Y-32775521D03*
D16*
X44821001Y-35355521D03*
X54981001Y-35355521D03*
D17*
X49901001Y-35355521D03*
D18*
X52441001Y-30275521D03*
X53711001Y-32815520D03*
X47361001Y-30275521D03*
X46091001Y-32815521D03*
D19*
X44201001Y-30235521D03*
X56901001Y-32775521D03*
D16*
X25821001Y-35355521D03*
X35981001Y-35355521D03*
D17*
X30901001Y-35355521D03*
D18*
X33441001Y-30275521D03*
X34711001Y-32815520D03*
X28361001Y-30275521D03*
X27091001Y-32815521D03*
D19*
X25201001Y-30235521D03*
X37901001Y-32775521D03*
D16*
X6821001Y-35355521D03*
X16981001Y-35355521D03*
D17*
X11901001Y-35355521D03*
D18*
X14441001Y-30275521D03*
X15711001Y-32815520D03*
X9361001Y-30275521D03*
X8091001Y-32815521D03*
D19*
X6201001Y-30235521D03*
X18901001Y-32775521D03*
D22*
X141551001Y-77855521D03*
X138251001Y-77855521D03*
X148251001Y-77855521D03*
X151551001Y-77855521D03*
G36*
G01*
X137146177Y-29930521D02*
X138655825Y-29930521D01*
G75*
G02*
X138976001Y-30250697I0J-320176D01*
G01*
X138976001Y-31435345D01*
G75*
G02*
X138655825Y-31755521I-320176J0D01*
G01*
X137146177Y-31755521D01*
G75*
G02*
X136826001Y-31435345I0J320176D01*
G01*
X136826001Y-30250697D01*
G75*
G02*
X137146177Y-29930521I320176J0D01*
G01*
G37*
G36*
G01*
X137146177Y-26955521D02*
X138655825Y-26955521D01*
G75*
G02*
X138976001Y-27275697I0J-320176D01*
G01*
X138976001Y-28460345D01*
G75*
G02*
X138655825Y-28780521I-320176J0D01*
G01*
X137146177Y-28780521D01*
G75*
G02*
X136826001Y-28460345I0J320176D01*
G01*
X136826001Y-27275697D01*
G75*
G02*
X137146177Y-26955521I320176J0D01*
G01*
G37*
D23*
X130221001Y-63855521D03*
D24*
X127681001Y-63855521D03*
X125141001Y-63855521D03*
D25*
X122601001Y-63855521D03*
G36*
G01*
X137238501Y-40330521D02*
X136563501Y-40330521D01*
G75*
G02*
X136226001Y-39993021I0J337500D01*
G01*
X136226001Y-39218021D01*
G75*
G02*
X136563501Y-38880521I337500J0D01*
G01*
X137238501Y-38880521D01*
G75*
G02*
X137576001Y-39218021I0J-337500D01*
G01*
X137576001Y-39993021D01*
G75*
G02*
X137238501Y-40330521I-337500J0D01*
G01*
G37*
G36*
G01*
X137238501Y-42080521D02*
X136563501Y-42080521D01*
G75*
G02*
X136226001Y-41743021I0J337500D01*
G01*
X136226001Y-40968021D01*
G75*
G02*
X136563501Y-40630521I337500J0D01*
G01*
X137238501Y-40630521D01*
G75*
G02*
X137576001Y-40968021I0J-337500D01*
G01*
X137576001Y-41743021D01*
G75*
G02*
X137238501Y-42080521I-337500J0D01*
G01*
G37*
D26*
X143901001Y-28355521D03*
X146901001Y-28355521D03*
D27*
X144651001Y-30355521D03*
X143151001Y-30355521D03*
X147651001Y-30355521D03*
D28*
X149401001Y-27255521D03*
X149401001Y-29455521D03*
X141401001Y-29455521D03*
X141401001Y-27255521D03*
M02*
