M48
; DRILL file {KiCad (5.1.5)-3} date 2020/05/19 16:00:52
; FORMAT={-:-/ absolute / metric / decimal}
; #@! TF.CreationDate,2020-05-19T16:00:52+09:00
; #@! TF.GenerationSoftware,Kicad,Pcbnew,(5.1.5)-3
; #@! TF.FileFunction,Plated,1,2,PTH
FMAT,2
METRIC
T1C0.300
T2C0.500
T3C0.850
T4C1.800
%
G90
G05
T1
X133.801Y-41.756
X136.501Y-43.256
X137.601Y-74.156
X138.401Y-61.056
X143.401Y-31.956
T2
X4.901Y-55.556
X4.901Y-74.656
X4.901Y-93.556
X9.001Y-38.256
X11.901Y-65.856
X11.901Y-84.756
X12.001Y-27.856
X12.001Y-46.956
X23.901Y-55.256
X23.901Y-74.456
X23.901Y-93.556
X28.001Y-38.356
X30.901Y-27.856
X30.901Y-65.856
X30.901Y-84.656
X31.001Y-46.756
X42.901Y-55.356
X42.901Y-74.356
X42.901Y-93.756
X47.201Y-38.156
X49.601Y-27.856
X49.801Y-84.956
X50.001Y-46.856
X50.001Y-65.956
X61.801Y-74.356
X61.901Y-93.356
X62.101Y-55.256
X65.901Y-38.256
X68.901Y-28.056
X68.901Y-65.956
X69.001Y-46.956
X69.001Y-84.956
X80.901Y-74.756
X80.901Y-93.456
X81.401Y-55.656
X84.901Y-38.156
X87.801Y-84.956
X87.901Y-27.956
X87.901Y-46.756
X87.901Y-65.856
X98.901Y-87.556
X99.901Y-74.756
X100.201Y-55.456
X103.901Y-37.856
X106.801Y-27.956
X106.801Y-46.956
X106.901Y-65.956
X106.901Y-84.856
X116.401Y-99.856
X118.001Y-87.756
X118.901Y-74.456
X119.101Y-55.656
X119.301Y-36.756
X122.501Y-99.656
X125.801Y-27.956
X125.901Y-46.856
X125.901Y-84.756
X126.001Y-65.956
X130.701Y-60.656
X135.101Y-87.256
X137.901Y-33.056
X138.101Y-49.856
X138.601Y-38.906
X139.801Y-28.156
X139.901Y-59.356
X146.401Y-51.656
X146.401Y-52.856
X147.701Y-53.156
X147.801Y-37.956
X151.401Y-71.856
X151.401Y-82.356
T3
X122.601Y-63.856
X125.141Y-63.856
X127.681Y-63.856
X130.221Y-63.856
T4
X144.901Y-80.456
X144.901Y-99.256
X144.901Y-56.956
X144.901Y-75.756
T0
M30
