M48
; DRILL file {KiCad (5.1.5)-3} date 2020/05/19 16:00:52
; FORMAT={-:-/ absolute / metric / decimal}
; #@! TF.CreationDate,2020-05-19T16:00:52+09:00
; #@! TF.GenerationSoftware,Kicad,Pcbnew,(5.1.5)-3
; #@! TF.FileFunction,NonPlated,1,2,NPTH
FMAT,2
METRIC
T1C0.900
T2C1.900
T3C3.000
T4C4.100
T5C4.300
%
G90
G05
T1
X143.901Y-28.356
X146.901Y-28.356
T2
X120.821Y-54.356
X130.981Y-54.356
X101.821Y-54.356
X111.981Y-54.356
X82.821Y-92.356
X92.981Y-92.356
X101.821Y-73.356
X111.981Y-73.356
X82.821Y-54.356
X92.981Y-54.356
X25.821Y-73.356
X35.981Y-73.356
X120.821Y-73.356
X130.981Y-73.356
X25.821Y-92.356
X35.981Y-92.356
X6.821Y-54.356
X16.981Y-54.356
X82.821Y-35.356
X92.981Y-35.356
X63.821Y-73.356
X73.981Y-73.356
X6.821Y-92.356
X16.981Y-92.356
X25.821Y-35.356
X35.981Y-35.356
X44.821Y-35.356
X54.981Y-35.356
X101.821Y-92.356
X111.981Y-92.356
X63.821Y-92.356
X73.981Y-92.356
X101.821Y-35.356
X111.981Y-35.356
X25.821Y-54.356
X35.981Y-54.356
X6.821Y-35.356
X16.981Y-35.356
X63.821Y-54.356
X73.981Y-54.356
X44.821Y-92.356
X54.981Y-92.356
X120.821Y-35.356
X130.981Y-35.356
X82.821Y-73.356
X92.981Y-73.356
X63.821Y-35.356
X73.981Y-35.356
X6.821Y-73.356
X16.981Y-73.356
X120.821Y-92.356
X130.981Y-92.356
X44.821Y-54.356
X54.981Y-54.356
X111.321Y-92.356
X121.481Y-92.356
X44.821Y-73.356
X54.981Y-73.356
T3
X103.091Y-32.816
X104.361Y-30.276
X109.441Y-30.276
X110.711Y-32.816
X27.091Y-51.816
X28.361Y-49.276
X33.441Y-49.276
X34.711Y-51.816
X8.091Y-32.816
X9.361Y-30.276
X14.441Y-30.276
X15.711Y-32.816
X65.091Y-51.816
X66.361Y-49.276
X71.441Y-49.276
X72.711Y-51.816
X46.091Y-89.816
X47.361Y-87.276
X52.441Y-87.276
X53.711Y-89.816
X122.091Y-32.816
X123.361Y-30.276
X128.441Y-30.276
X129.711Y-32.816
X84.091Y-70.816
X85.361Y-68.276
X90.441Y-68.276
X91.711Y-70.816
X65.091Y-32.816
X66.361Y-30.276
X71.441Y-30.276
X72.711Y-32.816
X8.091Y-70.816
X9.361Y-68.276
X14.441Y-68.276
X15.711Y-70.816
X122.091Y-89.816
X123.361Y-87.276
X128.441Y-87.276
X129.711Y-89.816
X46.091Y-51.816
X47.361Y-49.276
X52.441Y-49.276
X53.711Y-51.816
X112.591Y-94.896
X113.861Y-97.436
X118.941Y-97.436
X120.211Y-94.896
X46.091Y-70.816
X47.361Y-68.276
X52.441Y-68.276
X53.711Y-70.816
X122.091Y-51.816
X123.361Y-49.276
X128.441Y-49.276
X129.711Y-51.816
X103.091Y-51.816
X104.361Y-49.276
X109.441Y-49.276
X110.711Y-51.816
X84.091Y-89.816
X85.361Y-87.276
X90.441Y-87.276
X91.711Y-89.816
X103.091Y-70.816
X104.361Y-68.276
X109.441Y-68.276
X110.711Y-70.816
X84.091Y-51.816
X85.361Y-49.276
X90.441Y-49.276
X91.711Y-51.816
X27.091Y-70.816
X28.361Y-68.276
X33.441Y-68.276
X34.711Y-70.816
X122.091Y-70.816
X123.361Y-68.276
X128.441Y-68.276
X129.711Y-70.816
X27.091Y-89.816
X28.361Y-87.276
X33.441Y-87.276
X34.711Y-89.816
X8.091Y-51.816
X9.361Y-49.276
X14.441Y-49.276
X15.711Y-51.816
X84.091Y-32.816
X85.361Y-30.276
X90.441Y-30.276
X91.711Y-32.816
X65.091Y-70.816
X66.361Y-68.276
X71.441Y-68.276
X72.711Y-70.816
X8.091Y-89.816
X9.361Y-87.276
X14.441Y-87.276
X15.711Y-89.816
X27.091Y-32.816
X28.361Y-30.276
X33.441Y-30.276
X34.711Y-32.816
X46.091Y-32.816
X47.361Y-30.276
X52.441Y-30.276
X53.711Y-32.816
X103.091Y-89.816
X104.361Y-87.276
X109.441Y-87.276
X110.711Y-89.816
X65.091Y-89.816
X66.361Y-87.276
X71.441Y-87.276
X72.711Y-89.816
T4
X30.901Y-35.356
X49.901Y-35.356
X106.901Y-92.356
X68.901Y-92.356
X106.901Y-35.356
X30.901Y-54.356
X11.901Y-35.356
X68.901Y-54.356
X49.901Y-92.356
X125.901Y-35.356
X87.901Y-73.356
X68.901Y-35.356
X11.901Y-73.356
X125.901Y-92.356
X49.901Y-54.356
X116.401Y-92.356
X49.901Y-73.356
X125.901Y-54.356
X106.901Y-54.356
X87.901Y-92.356
X106.901Y-73.356
X87.901Y-54.356
X30.901Y-73.356
X125.901Y-73.356
X30.901Y-92.356
X11.901Y-54.356
X87.901Y-35.356
X68.901Y-73.356
X11.901Y-92.356
T5
X59.401Y-63.856
X21.401Y-44.856
X116.401Y-44.856
X116.401Y-81.856
X21.401Y-82.856
T0
M30
